%TF.GenerationSoftware,KiCad,Pcbnew,9.0.0*%
%TF.CreationDate,2025-11-10T18:58:51+02:00*%
%TF.ProjectId,Controller V2,436f6e74-726f-46c6-9c65-722056322e6b,rev?*%
%TF.SameCoordinates,Original*%
%TF.FileFunction,Paste,Top*%
%TF.FilePolarity,Positive*%
%FSLAX46Y46*%
G04 Gerber Fmt 4.6, Leading zero omitted, Abs format (unit mm)*
G04 Created by KiCad (PCBNEW 9.0.0) date 2025-11-10 18:58:51*
%MOMM*%
%LPD*%
G01*
G04 APERTURE LIST*
G04 Aperture macros list*
%AMRoundRect*
0 Rectangle with rounded corners*
0 $1 Rounding radius*
0 $2 $3 $4 $5 $6 $7 $8 $9 X,Y pos of 4 corners*
0 Add a 4 corners polygon primitive as box body*
4,1,4,$2,$3,$4,$5,$6,$7,$8,$9,$2,$3,0*
0 Add four circle primitives for the rounded corners*
1,1,$1+$1,$2,$3*
1,1,$1+$1,$4,$5*
1,1,$1+$1,$6,$7*
1,1,$1+$1,$8,$9*
0 Add four rect primitives between the rounded corners*
20,1,$1+$1,$2,$3,$4,$5,0*
20,1,$1+$1,$4,$5,$6,$7,0*
20,1,$1+$1,$6,$7,$8,$9,0*
20,1,$1+$1,$8,$9,$2,$3,0*%
G04 Aperture macros list end*
%ADD10RoundRect,0.250000X0.350000X0.450000X-0.350000X0.450000X-0.350000X-0.450000X0.350000X-0.450000X0*%
%ADD11RoundRect,0.250000X-0.400000X-1.075000X0.400000X-1.075000X0.400000X1.075000X-0.400000X1.075000X0*%
%ADD12RoundRect,0.250000X-0.650000X0.412500X-0.650000X-0.412500X0.650000X-0.412500X0.650000X0.412500X0*%
%ADD13RoundRect,0.250000X0.412500X0.650000X-0.412500X0.650000X-0.412500X-0.650000X0.412500X-0.650000X0*%
%ADD14RoundRect,0.250000X0.400000X0.625000X-0.400000X0.625000X-0.400000X-0.625000X0.400000X-0.625000X0*%
%ADD15RoundRect,0.250000X-0.400000X-0.625000X0.400000X-0.625000X0.400000X0.625000X-0.400000X0.625000X0*%
%ADD16RoundRect,0.250001X-0.462499X-0.624999X0.462499X-0.624999X0.462499X0.624999X-0.462499X0.624999X0*%
%ADD17RoundRect,0.150000X0.825000X0.150000X-0.825000X0.150000X-0.825000X-0.150000X0.825000X-0.150000X0*%
%ADD18RoundRect,0.250000X0.400000X1.075000X-0.400000X1.075000X-0.400000X-1.075000X0.400000X-1.075000X0*%
%ADD19RoundRect,0.250000X0.650000X-1.000000X0.650000X1.000000X-0.650000X1.000000X-0.650000X-1.000000X0*%
%ADD20RoundRect,0.250000X-0.625000X0.400000X-0.625000X-0.400000X0.625000X-0.400000X0.625000X0.400000X0*%
%ADD21RoundRect,0.250000X-0.412500X-0.650000X0.412500X-0.650000X0.412500X0.650000X-0.412500X0.650000X0*%
%ADD22RoundRect,0.250000X1.000000X0.650000X-1.000000X0.650000X-1.000000X-0.650000X1.000000X-0.650000X0*%
%ADD23RoundRect,0.250000X-1.000000X-0.650000X1.000000X-0.650000X1.000000X0.650000X-1.000000X0.650000X0*%
%ADD24RoundRect,0.250000X-1.075000X0.400000X-1.075000X-0.400000X1.075000X-0.400000X1.075000X0.400000X0*%
%ADD25RoundRect,0.250000X0.650000X-0.412500X0.650000X0.412500X-0.650000X0.412500X-0.650000X-0.412500X0*%
%ADD26RoundRect,0.051250X-0.733750X-0.153750X0.733750X-0.153750X0.733750X0.153750X-0.733750X0.153750X0*%
%ADD27RoundRect,0.150000X0.150000X-0.587500X0.150000X0.587500X-0.150000X0.587500X-0.150000X-0.587500X0*%
%ADD28RoundRect,0.703703X1.396297X1.196297X-1.396297X1.196297X-1.396297X-1.196297X1.396297X-1.196297X0*%
%ADD29RoundRect,0.150000X-0.150000X0.587500X-0.150000X-0.587500X0.150000X-0.587500X0.150000X0.587500X0*%
%ADD30R,4.000000X1.000000*%
%ADD31RoundRect,0.250001X0.624999X-0.462499X0.624999X0.462499X-0.624999X0.462499X-0.624999X-0.462499X0*%
%ADD32RoundRect,0.250000X0.625000X-0.400000X0.625000X0.400000X-0.625000X0.400000X-0.625000X-0.400000X0*%
%ADD33RoundRect,0.250001X-0.624999X0.462499X-0.624999X-0.462499X0.624999X-0.462499X0.624999X0.462499X0*%
%ADD34RoundRect,0.250001X0.462499X0.624999X-0.462499X0.624999X-0.462499X-0.624999X0.462499X-0.624999X0*%
G04 APERTURE END LIST*
D10*
%TO.C,R12*%
X183400000Y-131400000D03*
X181400000Y-131400000D03*
%TD*%
D11*
%TO.C,R28*%
X210050000Y-108120000D03*
X213150000Y-108120000D03*
%TD*%
D12*
%TO.C,C6*%
X100100000Y-74437500D03*
X100100000Y-77562500D03*
%TD*%
D13*
%TO.C,C31*%
X226862500Y-89600000D03*
X223737500Y-89600000D03*
%TD*%
D11*
%TO.C,R17*%
X210650000Y-67890000D03*
X213750000Y-67890000D03*
%TD*%
D14*
%TO.C,R42*%
X96750000Y-127800000D03*
X93650000Y-127800000D03*
%TD*%
D13*
%TO.C,C33*%
X206012500Y-136600000D03*
X202887500Y-136600000D03*
%TD*%
D15*
%TO.C,R19*%
X232437500Y-54020000D03*
X235537500Y-54020000D03*
%TD*%
D16*
%TO.C,D4*%
X232500000Y-57400000D03*
X235475000Y-57400000D03*
%TD*%
D11*
%TO.C,R29*%
X211000000Y-130400000D03*
X214100000Y-130400000D03*
%TD*%
D17*
%TO.C,U1*%
X106200000Y-131750000D03*
X106200000Y-130480000D03*
X106200000Y-129210000D03*
X106200000Y-127940000D03*
X106200000Y-126670000D03*
X106200000Y-125400000D03*
X106200000Y-124130000D03*
X101250000Y-124130000D03*
X101250000Y-125400000D03*
X101250000Y-126670000D03*
X101250000Y-127940000D03*
X101250000Y-129210000D03*
X101250000Y-130480000D03*
X101250000Y-131750000D03*
%TD*%
D11*
%TO.C,R22*%
X210050000Y-96320000D03*
X213150000Y-96320000D03*
%TD*%
D18*
%TO.C,R57*%
X229900000Y-97400000D03*
X226800000Y-97400000D03*
%TD*%
D19*
%TO.C,D15*%
X214450000Y-140200000D03*
X214450000Y-136200000D03*
%TD*%
D20*
%TO.C,R47*%
X109550000Y-131850000D03*
X109550000Y-134950000D03*
%TD*%
D18*
%TO.C,R55*%
X229150000Y-73766750D03*
X226050000Y-73766750D03*
%TD*%
D21*
%TO.C,C36*%
X196547500Y-107910000D03*
X199672500Y-107910000D03*
%TD*%
D22*
%TO.C,D11*%
X233600000Y-87100000D03*
X229600000Y-87100000D03*
%TD*%
D18*
%TO.C,R49*%
X229050000Y-77140000D03*
X225950000Y-77140000D03*
%TD*%
D11*
%TO.C,R27*%
X210150000Y-118860000D03*
X213250000Y-118860000D03*
%TD*%
%TO.C,R26*%
X210050000Y-92860000D03*
X213150000Y-92860000D03*
%TD*%
D13*
%TO.C,C27*%
X111162500Y-115900000D03*
X108037500Y-115900000D03*
%TD*%
D21*
%TO.C,C38*%
X196137500Y-118600000D03*
X199262500Y-118600000D03*
%TD*%
D11*
%TO.C,R30*%
X209950000Y-103200000D03*
X213050000Y-103200000D03*
%TD*%
D18*
%TO.C,R60*%
X230250000Y-126060000D03*
X227150000Y-126060000D03*
%TD*%
D23*
%TO.C,D10*%
X224500000Y-70240000D03*
X228500000Y-70240000D03*
%TD*%
D11*
%TO.C,R32*%
X210150000Y-115560000D03*
X213250000Y-115560000D03*
%TD*%
D14*
%TO.C,R45*%
X101150000Y-121600000D03*
X98050000Y-121600000D03*
%TD*%
D24*
%TO.C,R48*%
X233400000Y-81050000D03*
X233400000Y-84150000D03*
%TD*%
%TO.C,R31*%
X230000000Y-81050000D03*
X230000000Y-84150000D03*
%TD*%
D25*
%TO.C,C42*%
X185500000Y-81025000D03*
X185500000Y-77900000D03*
%TD*%
D26*
%TO.C,U2*%
X190567500Y-109985000D03*
X190567500Y-110635000D03*
X190567500Y-111285000D03*
X190567500Y-111935000D03*
X190567500Y-112585000D03*
X190567500Y-113235000D03*
X190567500Y-113885000D03*
X190567500Y-114535000D03*
X190567500Y-115185000D03*
X190567500Y-115835000D03*
X196307500Y-115835000D03*
X196307500Y-115185000D03*
X196307500Y-114535000D03*
X196307500Y-113885000D03*
X196307500Y-113235000D03*
X196307500Y-112585000D03*
X196307500Y-111935000D03*
X196307500Y-111285000D03*
X196307500Y-110635000D03*
X196307500Y-109985000D03*
%TD*%
D12*
%TO.C,C37*%
X200600000Y-110937500D03*
X200600000Y-114062500D03*
%TD*%
D11*
%TO.C,R21*%
X210550000Y-83450000D03*
X213650000Y-83450000D03*
%TD*%
D10*
%TO.C,R11*%
X183300000Y-137500000D03*
X181300000Y-137500000D03*
%TD*%
D23*
%TO.C,D14*%
X225700000Y-118460000D03*
X229700000Y-118460000D03*
%TD*%
%TO.C,D12*%
X225300000Y-93900000D03*
X229300000Y-93900000D03*
%TD*%
D22*
%TO.C,D13*%
X235400000Y-110100000D03*
X231400000Y-110100000D03*
%TD*%
D27*
%TO.C,D22*%
X176850000Y-130375000D03*
X178750000Y-130375000D03*
X177800000Y-128500000D03*
%TD*%
D13*
%TO.C,C20*%
X155142500Y-78900000D03*
X152017500Y-78900000D03*
%TD*%
D18*
%TO.C,R62*%
X211250000Y-139600000D03*
X208150000Y-139600000D03*
%TD*%
D28*
%TO.C,F1*%
X111200000Y-77700000D03*
X104500000Y-77700000D03*
%TD*%
D11*
%TO.C,R33*%
X210950000Y-127100000D03*
X214050000Y-127100000D03*
%TD*%
D18*
%TO.C,R56*%
X229900000Y-100800000D03*
X226800000Y-100800000D03*
%TD*%
D12*
%TO.C,C23*%
X223000000Y-73777500D03*
X223000000Y-76902500D03*
%TD*%
D25*
%TO.C,C10*%
X87900000Y-92762500D03*
X87900000Y-89637500D03*
%TD*%
D18*
%TO.C,R63*%
X211250000Y-136200000D03*
X208150000Y-136200000D03*
%TD*%
D20*
%TO.C,R44*%
X116100000Y-130450000D03*
X116100000Y-133550000D03*
%TD*%
D29*
%TO.C,D27*%
X127750000Y-96762500D03*
X125850000Y-96762500D03*
X126800000Y-98637500D03*
%TD*%
D13*
%TO.C,C9*%
X132462500Y-73300000D03*
X129337500Y-73300000D03*
%TD*%
D29*
%TO.C,D25*%
X123050000Y-109062500D03*
X121150000Y-109062500D03*
X122100000Y-110937500D03*
%TD*%
D16*
%TO.C,FB1*%
X129512500Y-69800000D03*
X132487500Y-69800000D03*
%TD*%
D30*
%TO.C,NT1*%
X185075000Y-65520000D03*
X181125000Y-65520000D03*
%TD*%
D25*
%TO.C,C7*%
X175410000Y-80472500D03*
X175410000Y-77347500D03*
%TD*%
D31*
%TO.C,FB2*%
X172600000Y-77687500D03*
X172600000Y-74712500D03*
%TD*%
D27*
%TO.C,D7*%
X117300000Y-94800000D03*
X119200000Y-94800000D03*
X118250000Y-92925000D03*
%TD*%
%TO.C,D21*%
X176150000Y-136537500D03*
X178050000Y-136537500D03*
X177100000Y-134662500D03*
%TD*%
D14*
%TO.C,R53*%
X155150000Y-76220000D03*
X152050000Y-76220000D03*
%TD*%
D15*
%TO.C,R46*%
X106100000Y-121500000D03*
X109200000Y-121500000D03*
%TD*%
D29*
%TO.C,D24*%
X162650000Y-75625000D03*
X160750000Y-75625000D03*
X161700000Y-77500000D03*
%TD*%
D13*
%TO.C,C32*%
X235325000Y-114000000D03*
X232200000Y-114000000D03*
%TD*%
%TO.C,C35*%
X190545000Y-118610000D03*
X187420000Y-118610000D03*
%TD*%
D29*
%TO.C,D26*%
X124950000Y-101962500D03*
X123050000Y-101962500D03*
X124000000Y-103837500D03*
%TD*%
D25*
%TO.C,C8*%
X178410000Y-80472500D03*
X178410000Y-77347500D03*
%TD*%
D12*
%TO.C,C29*%
X223900000Y-122297500D03*
X223900000Y-125422500D03*
%TD*%
D32*
%TO.C,R43*%
X116100000Y-126650000D03*
X116100000Y-123550000D03*
%TD*%
D33*
%TO.C,D6*%
X135000000Y-61712500D03*
X135000000Y-64687500D03*
%TD*%
D11*
%TO.C,R18*%
X210550000Y-80090000D03*
X213650000Y-80090000D03*
%TD*%
D21*
%TO.C,C34*%
X187347500Y-122210000D03*
X190472500Y-122210000D03*
%TD*%
D11*
%TO.C,R16*%
X210650000Y-71450000D03*
X213750000Y-71450000D03*
%TD*%
D18*
%TO.C,R61*%
X230250000Y-122150000D03*
X227150000Y-122150000D03*
%TD*%
D24*
%TO.C,R58*%
X227720000Y-109572500D03*
X227720000Y-112672500D03*
%TD*%
%TO.C,R59*%
X224500000Y-109550000D03*
X224500000Y-112650000D03*
%TD*%
D12*
%TO.C,C28*%
X223600000Y-97337500D03*
X223600000Y-100462500D03*
%TD*%
D34*
%TO.C,D23*%
X89187500Y-75200000D03*
X86212500Y-75200000D03*
%TD*%
M02*
