M48
; DRILL file {KiCad 9.0.0} date 2025-11-10T18:58:52+0200
; FORMAT={-:-/ absolute / inch / decimal}
; #@! TF.CreationDate,2025-11-10T18:58:52+02:00
; #@! TF.GenerationSoftware,Kicad,Pcbnew,9.0.0
; #@! TF.FileFunction,Plated,1,2,PTH
FMAT,2
INCH
; #@! TA.AperFunction,Plated,PTH,ComponentDrill
T1C0.0197
; #@! TA.AperFunction,Plated,PTH,ViaDrill
T2C0.0236
; #@! TA.AperFunction,Plated,PTH,ComponentDrill
T3C0.0276
; #@! TA.AperFunction,Plated,PTH,ComponentDrill
T4C0.0315
; #@! TA.AperFunction,Plated,PTH,ComponentDrill
T5C0.0354
; #@! TA.AperFunction,Plated,PTH,ViaDrill
T6C0.0394
; #@! TA.AperFunction,Plated,PTH,ComponentDrill
T7C0.0394
; #@! TA.AperFunction,Plated,PTH,ComponentDrill
T8C0.0472
; #@! TA.AperFunction,Plated,PTH,ComponentDrill
T9C0.0512
; #@! TA.AperFunction,Plated,PTH,ComponentDrill
T10C0.0551
; #@! TA.AperFunction,Plated,PTH,ComponentDrill
T11C0.0591
; #@! TA.AperFunction,Plated,PTH,ComponentDrill
T12C0.0787
; #@! TA.AperFunction,Plated,PTH,ComponentDrill
T13C0.0984
%
G90
G05
T1
X2.8789Y-2.1654
X2.8789Y-5.7087
X2.9006Y-2.1132
X2.9006Y-2.2176
X2.9006Y-5.6565
X2.9006Y-5.7609
X2.9528Y-2.0915
X2.9528Y-2.2392
X2.9528Y-5.6348
X2.9528Y-5.7825
X3.005Y-2.1132
X3.005Y-2.2176
X3.005Y-5.6565
X3.005Y-5.7609
X3.0266Y-2.1654
X3.0266Y-5.7087
X5.2411Y-2.1654
X5.2411Y-5.7087
X5.2628Y-2.1132
X5.2628Y-2.2176
X5.2628Y-5.6565
X5.2628Y-5.7609
X5.315Y-2.0915
X5.315Y-2.2392
X5.315Y-5.6348
X5.315Y-5.7825
X5.3672Y-2.1132
X5.3672Y-2.2176
X5.3672Y-5.6565
X5.3672Y-5.7609
X5.3888Y-2.1654
X5.3888Y-5.7087
X6.0285Y-2.1654
X6.0285Y-5.7087
X6.0502Y-2.1132
X6.0502Y-2.2176
X6.0502Y-5.6565
X6.0502Y-5.7609
X6.1024Y-2.0915
X6.1024Y-2.2392
X6.1024Y-5.6348
X6.1024Y-5.7825
X6.1546Y-2.1132
X6.1546Y-2.2176
X6.1546Y-5.6565
X6.1546Y-5.7609
X6.1762Y-2.1654
X6.1762Y-5.7087
X9.5719Y-2.1654
X9.5719Y-5.7087
X9.5935Y-2.1132
X9.5935Y-2.2176
X9.5935Y-5.6565
X9.5935Y-5.7609
X9.6457Y-2.0915
X9.6457Y-2.2392
X9.6457Y-5.6348
X9.6457Y-5.7825
X9.6979Y-2.1132
X9.6979Y-2.2176
X9.6979Y-5.6565
X9.6979Y-5.7609
X9.7195Y-2.1654
X9.7195Y-5.7087
T2
X3.0512Y-4.0354
X3.0512Y-4.2323
X3.0512Y-4.4291
X3.3465Y-4.0354
X3.3465Y-4.2323
X3.3465Y-4.4291
X3.4449Y-4.9213
X3.4449Y-5.2165
X3.5433Y-4.8228
X3.5433Y-5.315
X3.6417Y-3.5433
X3.6417Y-4.0354
X3.6417Y-4.2323
X3.6417Y-4.4291
X3.7402Y-3.5433
X3.7402Y-4.626
X3.7402Y-5.4134
X3.8386Y-4.5276
X3.8386Y-5.6102
X3.937Y-3.5433
X3.937Y-4.4291
X4.0354Y-3.5433
X4.0354Y-5.6102
X4.2165Y-4.6496
X4.2323Y-3.5433
X4.2323Y-5.6102
X4.2795Y-5.1024
X4.2913Y-4.3701
X4.3189Y-4.878
X4.3228Y-4.9528
X4.3307Y-3.5433
X4.4291Y-2.4606
X4.4291Y-2.5591
X4.4291Y-2.6575
X4.4291Y-2.7559
X4.4291Y-5.6102
X4.4764Y-5.122
X4.4882Y-4.9882
X4.5276Y-2.4606
X4.5276Y-2.5591
X4.5276Y-2.6575
X4.5276Y-2.7559
X4.5276Y-3.5433
X4.5512Y-4.2008
X4.5906Y-4.2874
X4.626Y-2.4606
X4.626Y-2.5591
X4.626Y-2.6575
X4.626Y-2.7559
X4.626Y-3.5433
X4.626Y-5.6102
X4.6575Y-3.9843
X4.7244Y-2.4606
X4.7244Y-2.5591
X4.7244Y-2.6575
X4.7244Y-2.7559
X4.7717Y-4.0551
X4.7717Y-4.2087
X4.8154Y-5.35
X4.8228Y-4.5276
X5.0197Y-4.5276
X5.122Y-3.6654
X5.122Y-3.7323
X5.122Y-3.8031
X5.2165Y-4.5276
X5.315Y-4.626
X5.315Y-4.8228
X5.315Y-5.0197
X5.315Y-5.2165
X5.315Y-5.4134
X6.1024Y-5.2165
X6.1024Y-5.315
X6.1024Y-5.4134
X6.189Y-3.3976
X6.2992Y-4.7244
X6.3031Y-4.8803
X6.3976Y-4.7244
X6.3976Y-5.7087
X6.4213Y-2.8661
X6.4449Y-3.0827
X6.4961Y-5.7087
X6.5945Y-5.7087
X6.6929Y-3.3465
X6.6929Y-3.4449
X6.6929Y-4.4291
X6.6929Y-4.5276
X6.7913Y-3.3465
X6.7913Y-3.4449
X6.7913Y-3.6417
X6.7913Y-4.5276
X6.8898Y-2.0669
X6.8898Y-2.9528
X6.8898Y-3.3465
X6.8898Y-3.4449
X6.8898Y-3.6417
X6.8898Y-3.7402
X6.9528Y-5.2165
X6.9882Y-2.0669
X6.9882Y-3.3465
X6.9882Y-3.4449
X6.9882Y-3.6417
X6.9882Y-3.7402
X6.9882Y-3.8386
X6.9882Y-3.937
X6.9882Y-4.0354
X7.0394Y-5.2165
X7.0512Y-5.4567
X7.2835Y-2.0669
X7.2835Y-2.8543
X7.2835Y-5.7087
X7.2953Y-4.5945
X7.3228Y-4.3795
X7.3661Y-4.5276
X7.3819Y-2.8543
X7.3819Y-3.8386
X7.3819Y-3.937
X7.3819Y-4.0354
X7.3819Y-4.1339
X7.3819Y-5.7087
X7.4803Y-2.0669
X7.4803Y-2.8543
X7.4803Y-2.9528
X7.4803Y-3.0512
X7.4803Y-3.8386
X7.4803Y-3.937
X7.4803Y-5.7087
X7.5709Y-4.6614
X7.5787Y-5.6102
X7.5787Y-5.7087
X7.6772Y-5.0197
X7.6772Y-5.1181
X7.7283Y-5.7756
X7.7756Y-5.1181
X7.8858Y-3.9665
X7.9134Y-4.685
X7.9154Y-4.4272
X7.9213Y-5.6457
X7.9291Y-4.5591
X7.9488Y-4.626
X8.0157Y-3.8031
X8.0315Y-4.8465
X8.0472Y-4.3858
X8.1906Y-4.3567
X8.5433Y-5.5512
X8.7008Y-2.4803
X8.8976Y-2.5197
X8.9488Y-5.4606
X9.1339Y-2.6772
X9.1339Y-3.6969
X9.1339Y-5.2362
X9.1378Y-3.9685
X9.1526Y-4.6742
X9.1732Y-4.9606
X9.2283Y-4.6634
X9.252Y-5.8071
X9.3307Y-3.0709
X9.3307Y-3.189
X9.3307Y-3.5433
X9.3307Y-3.6614
X9.3307Y-4.685
X9.3504Y-5.8071
X9.7441Y-4.9213
X9.7441Y-5.2165
X9.7441Y-5.315
X9.7441Y-5.4134
X9.7441Y-5.5118
T3
X3.5035Y-3.0827
X3.8035Y-3.0827
X4.8154Y-4.7783
X4.8154Y-5.0783
X4.8154Y-5.1953
X4.8154Y-5.4953
X4.9394Y-4.7783
X4.9394Y-5.0783
X4.9394Y-5.1953
X4.9394Y-5.4953
X5.0634Y-4.7783
X5.0634Y-5.0783
X5.0634Y-5.1953
X5.0634Y-5.4953
X5.1181Y-2.2752
X5.1181Y-2.5752
X6.2244Y-2.9921
X6.2244Y-3.0921
T4
X2.9409Y-3.1693
X2.9409Y-3.248
X2.9409Y-3.3268
X3.6201Y-5.1457
X3.8169Y-5.1457
X4.685Y-5.1398
X4.685Y-5.3366
X4.6969Y-4.7874
X4.6969Y-4.9843
X4.815Y-4.6732
X5.0118Y-4.6732
X7.126Y-5.2953
X7.1339Y-5.0591
X7.3228Y-5.2953
X7.3307Y-5.0591
X7.9075Y-5.4921
X8.1043Y-5.4921
X9.5157Y-3.3189
X9.7126Y-3.3189
T5
X8.0315Y-2.7512
X8.0315Y-3.0512
X8.1417Y-3.5689
X8.1417Y-3.8689
X8.1417Y-3.9665
X8.1417Y-4.2665
X8.1575Y-4.9283
X8.1575Y-5.2283
X8.1614Y-4.4705
X8.1614Y-4.7705
X8.1732Y-2.9953
X8.1732Y-3.2953
T6
X4.1142Y-3.2402
X5.374Y-3.311
X6.7205Y-5.6063
X7.5Y-4.9803
X7.6181Y-4.5093
X7.622Y-4.3701
X7.622Y-4.4291
X7.9803Y-2.1181
T7
X2.937Y-3.6535
X2.937Y-3.7535
X2.937Y-3.8535
X3.3346Y-3.1614
X3.3346Y-3.2598
X4.2306Y-2.3235
X4.2306Y-2.4235
X4.2306Y-2.7435
X4.2306Y-2.8435
X4.837Y-5.6681
X4.937Y-5.6681
X4.9606Y-2.3235
X4.9606Y-2.4235
X4.9606Y-2.7435
X4.9606Y-2.8435
X5.037Y-5.6681
X5.252Y-3.2913
X5.252Y-3.3913
X5.252Y-3.4913
X5.252Y-3.5913
X5.252Y-3.6913
X5.252Y-3.7913
X5.252Y-3.8913
X5.252Y-3.9913
X5.252Y-4.0913
X5.252Y-4.1913
X5.252Y-4.2913
X6.0472Y-3.2913
X6.0472Y-3.3913
X6.0472Y-3.4913
X6.0472Y-3.5913
X6.0472Y-3.6913
X6.0472Y-3.7913
X6.0472Y-3.8913
X6.0472Y-3.9913
X6.0472Y-4.0913
X6.0472Y-4.1913
X6.0472Y-4.2913
X6.3071Y-3.615
X6.3071Y-3.715
X6.3071Y-3.815
X6.3071Y-3.915
X6.3071Y-4.015
X6.3071Y-4.115
X6.3071Y-4.215
X6.3071Y-4.315
X6.3071Y-4.415
X6.5571Y-2.9803
X6.5571Y-3.0803
X6.5571Y-3.1803
X6.5571Y-3.2803
X6.5571Y-3.3803
X6.5571Y-3.4803
X6.5571Y-3.5803
X6.5571Y-3.6803
X6.5571Y-3.7803
X6.5571Y-3.8803
X6.5571Y-3.9803
X6.5571Y-4.0803
X6.5571Y-4.1803
X6.5571Y-4.2803
X6.5571Y-4.3803
X6.5571Y-4.4803
X6.5571Y-4.5803
X6.5571Y-4.6803
X6.5571Y-4.7803
X6.5571Y-4.8803
X7.1575Y-2.9795
X7.1575Y-3.0795
X7.1575Y-3.1795
X7.1575Y-3.2795
X7.1575Y-3.3795
X7.1575Y-3.4795
X7.1575Y-3.5795
X7.1575Y-3.6795
X7.1575Y-3.7795
X7.1575Y-3.8795
X7.1575Y-3.9795
X7.1575Y-4.0795
X7.1575Y-4.1795
X7.1575Y-4.2795
X7.1575Y-4.3795
X7.1575Y-4.4795
X7.1575Y-4.5795
X7.1575Y-4.6795
X7.1575Y-4.7795
X7.1575Y-4.8795
X7.4882Y-3.1772
X7.4882Y-3.2772
X7.4882Y-3.3772
X7.4882Y-3.4772
X7.4882Y-3.5772
X7.4882Y-3.6772
X8.5866Y-2.7953
X8.5866Y-2.9024
X8.5866Y-3.0024
X8.5866Y-3.2677
X8.5866Y-3.3764
X8.5866Y-3.4764
X8.6102Y-4.7008
X8.6102Y-4.8134
X8.6102Y-4.9134
X8.6102Y-5.1535
X8.6102Y-5.2661
X8.6102Y-5.3661
X8.6142Y-3.7795
X8.6142Y-3.8913
X8.6142Y-3.9913
X8.6142Y-4.248
X8.6142Y-4.3567
X8.6142Y-4.4567
X9.2047Y-3.0551
X9.2441Y-5.3016
X9.3535Y-2.6287
X9.3543Y-4.0039
X9.4927Y-2.4895
X9.5249Y-4.6496
X9.7217Y-4.6496
T8
X3.4173Y-2.4024
X3.4173Y-2.8024
X3.7953Y-2.5354
X3.7953Y-2.7323
X6.5118Y-2.2724
X6.5118Y-2.6724
X7.0295Y-2.2835
X7.0295Y-2.5787
X7.6693Y-2.3337
X7.6693Y-2.5542
T9
X6.122Y-2.4331
X6.122Y-2.6331
T10
X3.1063Y-2.5047
X3.1063Y-2.7047
T11
X2.9409Y-3.0866
X2.9409Y-3.4094
T12
X8.8504Y-3.2677
X9.2244Y-4.1457
X9.2402Y-5.0969
T13
X2.9528Y-2.1654
X2.9528Y-5.7087
X5.315Y-2.1654
X5.315Y-5.7087
X6.1024Y-2.1654
X6.1024Y-5.7087
X9.6457Y-2.1654
X9.6457Y-5.7087
M30
