%TF.GenerationSoftware,KiCad,Pcbnew,9.0.0*%
%TF.CreationDate,2025-11-10T18:58:51+02:00*%
%TF.ProjectId,Controller V2,436f6e74-726f-46c6-9c65-722056322e6b,rev?*%
%TF.SameCoordinates,Original*%
%TF.FileFunction,Legend,Bot*%
%TF.FilePolarity,Positive*%
%FSLAX46Y46*%
G04 Gerber Fmt 4.6, Leading zero omitted, Abs format (unit mm)*
G04 Created by KiCad (PCBNEW 9.0.0) date 2025-11-10 18:58:51*
%MOMM*%
%LPD*%
G01*
G04 APERTURE LIST*
G04 Aperture macros list*
%AMRoundRect*
0 Rectangle with rounded corners*
0 $1 Rounding radius*
0 $2 $3 $4 $5 $6 $7 $8 $9 X,Y pos of 4 corners*
0 Add a 4 corners polygon primitive as box body*
4,1,4,$2,$3,$4,$5,$6,$7,$8,$9,$2,$3,0*
0 Add four circle primitives for the rounded corners*
1,1,$1+$1,$2,$3*
1,1,$1+$1,$4,$5*
1,1,$1+$1,$6,$7*
1,1,$1+$1,$8,$9*
0 Add four rect primitives between the rounded corners*
20,1,$1+$1,$2,$3,$4,$5,0*
20,1,$1+$1,$4,$5,$6,$7,0*
20,1,$1+$1,$6,$7,$8,$9,0*
20,1,$1+$1,$8,$9,$2,$3,0*%
%AMRotRect*
0 Rectangle, with rotation*
0 The origin of the aperture is its center*
0 $1 length*
0 $2 width*
0 $3 Rotation angle, in degrees counterclockwise*
0 Add horizontal line*
21,1,$1,$2,0,0,$3*%
G04 Aperture macros list end*
%ADD10C,0.150000*%
%ADD11C,0.120000*%
%ADD12C,0.000000*%
%ADD13R,1.800000X1.800000*%
%ADD14O,1.800000X1.800000*%
%ADD15RoundRect,0.250000X-1.050000X1.050000X-1.050000X-1.050000X1.050000X-1.050000X1.050000X1.050000X0*%
%ADD16C,2.600000*%
%ADD17R,1.700000X1.700000*%
%ADD18O,1.700000X1.700000*%
%ADD19R,2.400000X2.400000*%
%ADD20C,2.400000*%
%ADD21O,3.500000X2.200000*%
%ADD22R,2.500000X1.500000*%
%ADD23O,2.500000X1.500000*%
%ADD24C,1.600000*%
%ADD25RotRect,2.000000X2.000000X45.000000*%
%ADD26C,2.000000*%
%ADD27C,0.800000*%
%ADD28C,5.000000*%
%ADD29C,3.600000*%
%ADD30C,1.400000*%
%ADD31O,1.400000X1.400000*%
%ADD32RoundRect,0.250000X-0.750000X0.600000X-0.750000X-0.600000X0.750000X-0.600000X0.750000X0.600000X0*%
%ADD33O,2.000000X1.700000*%
%ADD34R,2.000000X2.000000*%
%ADD35O,2.400000X2.400000*%
%ADD36RoundRect,0.249999X-1.550001X0.790001X-1.550001X-0.790001X1.550001X-0.790001X1.550001X0.790001X0*%
%ADD37O,3.600000X2.080000*%
%ADD38R,1.600000X1.600000*%
%ADD39C,1.700000*%
%ADD40RoundRect,0.150000X0.825000X0.150000X-0.825000X0.150000X-0.825000X-0.150000X0.825000X-0.150000X0*%
%ADD41RoundRect,0.250000X-0.625000X0.400000X-0.625000X-0.400000X0.625000X-0.400000X0.625000X0.400000X0*%
%ADD42RoundRect,0.249999X0.450001X1.425001X-0.450001X1.425001X-0.450001X-1.425001X0.450001X-1.425001X0*%
%ADD43RoundRect,0.250000X-0.400000X-0.625000X0.400000X-0.625000X0.400000X0.625000X-0.400000X0.625000X0*%
%ADD44RoundRect,0.250000X-0.412500X-0.650000X0.412500X-0.650000X0.412500X0.650000X-0.412500X0.650000X0*%
%ADD45RoundRect,0.250000X0.650000X-0.412500X0.650000X0.412500X-0.650000X0.412500X-0.650000X-0.412500X0*%
%ADD46RoundRect,0.250000X0.625000X-0.400000X0.625000X0.400000X-0.625000X0.400000X-0.625000X-0.400000X0*%
%ADD47C,1.600000*%
%ADD48C,3.400000*%
%ADD49C,1.100000*%
%ADD50C,5.400000*%
%ADD51C,2.400000*%
%ADD52C,2.100000*%
%ADD53C,4.400000*%
%ADD54C,0.900000*%
%ADD55C,2.900000*%
%ADD56C,1.900000*%
%ADD57C,2.200000*%
%ADD58C,3.200000*%
%ADD59C,0.600000*%
G04 APERTURE END LIST*
D10*
X157709523Y-82954819D02*
X157709523Y-83669104D01*
X157709523Y-83669104D02*
X157757142Y-83811961D01*
X157757142Y-83811961D02*
X157852380Y-83907200D01*
X157852380Y-83907200D02*
X157995237Y-83954819D01*
X157995237Y-83954819D02*
X158090475Y-83954819D01*
X156709523Y-83954819D02*
X157280951Y-83954819D01*
X156995237Y-83954819D02*
X156995237Y-82954819D01*
X156995237Y-82954819D02*
X157090475Y-83097676D01*
X157090475Y-83097676D02*
X157185713Y-83192914D01*
X157185713Y-83192914D02*
X157280951Y-83240533D01*
X156090475Y-82954819D02*
X155995237Y-82954819D01*
X155995237Y-82954819D02*
X155899999Y-83002438D01*
X155899999Y-83002438D02*
X155852380Y-83050057D01*
X155852380Y-83050057D02*
X155804761Y-83145295D01*
X155804761Y-83145295D02*
X155757142Y-83335771D01*
X155757142Y-83335771D02*
X155757142Y-83573866D01*
X155757142Y-83573866D02*
X155804761Y-83764342D01*
X155804761Y-83764342D02*
X155852380Y-83859580D01*
X155852380Y-83859580D02*
X155899999Y-83907200D01*
X155899999Y-83907200D02*
X155995237Y-83954819D01*
X155995237Y-83954819D02*
X156090475Y-83954819D01*
X156090475Y-83954819D02*
X156185713Y-83907200D01*
X156185713Y-83907200D02*
X156233332Y-83859580D01*
X156233332Y-83859580D02*
X156280951Y-83764342D01*
X156280951Y-83764342D02*
X156328570Y-83573866D01*
X156328570Y-83573866D02*
X156328570Y-83335771D01*
X156328570Y-83335771D02*
X156280951Y-83145295D01*
X156280951Y-83145295D02*
X156233332Y-83050057D01*
X156233332Y-83050057D02*
X156185713Y-83002438D01*
X156185713Y-83002438D02*
X156090475Y-82954819D01*
X223861904Y-114254819D02*
X223861904Y-115064342D01*
X223861904Y-115064342D02*
X223814285Y-115159580D01*
X223814285Y-115159580D02*
X223766666Y-115207200D01*
X223766666Y-115207200D02*
X223671428Y-115254819D01*
X223671428Y-115254819D02*
X223480952Y-115254819D01*
X223480952Y-115254819D02*
X223385714Y-115207200D01*
X223385714Y-115207200D02*
X223338095Y-115159580D01*
X223338095Y-115159580D02*
X223290476Y-115064342D01*
X223290476Y-115064342D02*
X223290476Y-114254819D01*
X222338095Y-114254819D02*
X222814285Y-114254819D01*
X222814285Y-114254819D02*
X222861904Y-114731009D01*
X222861904Y-114731009D02*
X222814285Y-114683390D01*
X222814285Y-114683390D02*
X222719047Y-114635771D01*
X222719047Y-114635771D02*
X222480952Y-114635771D01*
X222480952Y-114635771D02*
X222385714Y-114683390D01*
X222385714Y-114683390D02*
X222338095Y-114731009D01*
X222338095Y-114731009D02*
X222290476Y-114826247D01*
X222290476Y-114826247D02*
X222290476Y-115064342D01*
X222290476Y-115064342D02*
X222338095Y-115159580D01*
X222338095Y-115159580D02*
X222385714Y-115207200D01*
X222385714Y-115207200D02*
X222480952Y-115254819D01*
X222480952Y-115254819D02*
X222719047Y-115254819D01*
X222719047Y-115254819D02*
X222814285Y-115207200D01*
X222814285Y-115207200D02*
X222861904Y-115159580D01*
X237242857Y-109054819D02*
X237576190Y-108578628D01*
X237814285Y-109054819D02*
X237814285Y-108054819D01*
X237814285Y-108054819D02*
X237433333Y-108054819D01*
X237433333Y-108054819D02*
X237338095Y-108102438D01*
X237338095Y-108102438D02*
X237290476Y-108150057D01*
X237290476Y-108150057D02*
X237242857Y-108245295D01*
X237242857Y-108245295D02*
X237242857Y-108388152D01*
X237242857Y-108388152D02*
X237290476Y-108483390D01*
X237290476Y-108483390D02*
X237338095Y-108531009D01*
X237338095Y-108531009D02*
X237433333Y-108578628D01*
X237433333Y-108578628D02*
X237814285Y-108578628D01*
X236338095Y-108054819D02*
X236814285Y-108054819D01*
X236814285Y-108054819D02*
X236861904Y-108531009D01*
X236861904Y-108531009D02*
X236814285Y-108483390D01*
X236814285Y-108483390D02*
X236719047Y-108435771D01*
X236719047Y-108435771D02*
X236480952Y-108435771D01*
X236480952Y-108435771D02*
X236385714Y-108483390D01*
X236385714Y-108483390D02*
X236338095Y-108531009D01*
X236338095Y-108531009D02*
X236290476Y-108626247D01*
X236290476Y-108626247D02*
X236290476Y-108864342D01*
X236290476Y-108864342D02*
X236338095Y-108959580D01*
X236338095Y-108959580D02*
X236385714Y-109007200D01*
X236385714Y-109007200D02*
X236480952Y-109054819D01*
X236480952Y-109054819D02*
X236719047Y-109054819D01*
X236719047Y-109054819D02*
X236814285Y-109007200D01*
X236814285Y-109007200D02*
X236861904Y-108959580D01*
X235338095Y-109054819D02*
X235909523Y-109054819D01*
X235623809Y-109054819D02*
X235623809Y-108054819D01*
X235623809Y-108054819D02*
X235719047Y-108197676D01*
X235719047Y-108197676D02*
X235814285Y-108292914D01*
X235814285Y-108292914D02*
X235909523Y-108340533D01*
X229842857Y-102054819D02*
X230176190Y-101578628D01*
X230414285Y-102054819D02*
X230414285Y-101054819D01*
X230414285Y-101054819D02*
X230033333Y-101054819D01*
X230033333Y-101054819D02*
X229938095Y-101102438D01*
X229938095Y-101102438D02*
X229890476Y-101150057D01*
X229890476Y-101150057D02*
X229842857Y-101245295D01*
X229842857Y-101245295D02*
X229842857Y-101388152D01*
X229842857Y-101388152D02*
X229890476Y-101483390D01*
X229890476Y-101483390D02*
X229938095Y-101531009D01*
X229938095Y-101531009D02*
X230033333Y-101578628D01*
X230033333Y-101578628D02*
X230414285Y-101578628D01*
X228890476Y-102054819D02*
X229461904Y-102054819D01*
X229176190Y-102054819D02*
X229176190Y-101054819D01*
X229176190Y-101054819D02*
X229271428Y-101197676D01*
X229271428Y-101197676D02*
X229366666Y-101292914D01*
X229366666Y-101292914D02*
X229461904Y-101340533D01*
X228557142Y-101054819D02*
X227938095Y-101054819D01*
X227938095Y-101054819D02*
X228271428Y-101435771D01*
X228271428Y-101435771D02*
X228128571Y-101435771D01*
X228128571Y-101435771D02*
X228033333Y-101483390D01*
X228033333Y-101483390D02*
X227985714Y-101531009D01*
X227985714Y-101531009D02*
X227938095Y-101626247D01*
X227938095Y-101626247D02*
X227938095Y-101864342D01*
X227938095Y-101864342D02*
X227985714Y-101959580D01*
X227985714Y-101959580D02*
X228033333Y-102007200D01*
X228033333Y-102007200D02*
X228128571Y-102054819D01*
X228128571Y-102054819D02*
X228414285Y-102054819D01*
X228414285Y-102054819D02*
X228509523Y-102007200D01*
X228509523Y-102007200D02*
X228557142Y-101959580D01*
X231542857Y-143074819D02*
X231876190Y-142598628D01*
X232114285Y-143074819D02*
X232114285Y-142074819D01*
X232114285Y-142074819D02*
X231733333Y-142074819D01*
X231733333Y-142074819D02*
X231638095Y-142122438D01*
X231638095Y-142122438D02*
X231590476Y-142170057D01*
X231590476Y-142170057D02*
X231542857Y-142265295D01*
X231542857Y-142265295D02*
X231542857Y-142408152D01*
X231542857Y-142408152D02*
X231590476Y-142503390D01*
X231590476Y-142503390D02*
X231638095Y-142551009D01*
X231638095Y-142551009D02*
X231733333Y-142598628D01*
X231733333Y-142598628D02*
X232114285Y-142598628D01*
X230590476Y-143074819D02*
X231161904Y-143074819D01*
X230876190Y-143074819D02*
X230876190Y-142074819D01*
X230876190Y-142074819D02*
X230971428Y-142217676D01*
X230971428Y-142217676D02*
X231066666Y-142312914D01*
X231066666Y-142312914D02*
X231161904Y-142360533D01*
X229971428Y-142074819D02*
X229876190Y-142074819D01*
X229876190Y-142074819D02*
X229780952Y-142122438D01*
X229780952Y-142122438D02*
X229733333Y-142170057D01*
X229733333Y-142170057D02*
X229685714Y-142265295D01*
X229685714Y-142265295D02*
X229638095Y-142455771D01*
X229638095Y-142455771D02*
X229638095Y-142693866D01*
X229638095Y-142693866D02*
X229685714Y-142884342D01*
X229685714Y-142884342D02*
X229733333Y-142979580D01*
X229733333Y-142979580D02*
X229780952Y-143027200D01*
X229780952Y-143027200D02*
X229876190Y-143074819D01*
X229876190Y-143074819D02*
X229971428Y-143074819D01*
X229971428Y-143074819D02*
X230066666Y-143027200D01*
X230066666Y-143027200D02*
X230114285Y-142979580D01*
X230114285Y-142979580D02*
X230161904Y-142884342D01*
X230161904Y-142884342D02*
X230209523Y-142693866D01*
X230209523Y-142693866D02*
X230209523Y-142455771D01*
X230209523Y-142455771D02*
X230161904Y-142265295D01*
X230161904Y-142265295D02*
X230114285Y-142170057D01*
X230114285Y-142170057D02*
X230066666Y-142122438D01*
X230066666Y-142122438D02*
X229971428Y-142074819D01*
X224542857Y-143059580D02*
X224590476Y-143107200D01*
X224590476Y-143107200D02*
X224733333Y-143154819D01*
X224733333Y-143154819D02*
X224828571Y-143154819D01*
X224828571Y-143154819D02*
X224971428Y-143107200D01*
X224971428Y-143107200D02*
X225066666Y-143011961D01*
X225066666Y-143011961D02*
X225114285Y-142916723D01*
X225114285Y-142916723D02*
X225161904Y-142726247D01*
X225161904Y-142726247D02*
X225161904Y-142583390D01*
X225161904Y-142583390D02*
X225114285Y-142392914D01*
X225114285Y-142392914D02*
X225066666Y-142297676D01*
X225066666Y-142297676D02*
X224971428Y-142202438D01*
X224971428Y-142202438D02*
X224828571Y-142154819D01*
X224828571Y-142154819D02*
X224733333Y-142154819D01*
X224733333Y-142154819D02*
X224590476Y-142202438D01*
X224590476Y-142202438D02*
X224542857Y-142250057D01*
X223685714Y-142488152D02*
X223685714Y-143154819D01*
X223923809Y-142107200D02*
X224161904Y-142821485D01*
X224161904Y-142821485D02*
X223542857Y-142821485D01*
X222971428Y-142154819D02*
X222876190Y-142154819D01*
X222876190Y-142154819D02*
X222780952Y-142202438D01*
X222780952Y-142202438D02*
X222733333Y-142250057D01*
X222733333Y-142250057D02*
X222685714Y-142345295D01*
X222685714Y-142345295D02*
X222638095Y-142535771D01*
X222638095Y-142535771D02*
X222638095Y-142773866D01*
X222638095Y-142773866D02*
X222685714Y-142964342D01*
X222685714Y-142964342D02*
X222733333Y-143059580D01*
X222733333Y-143059580D02*
X222780952Y-143107200D01*
X222780952Y-143107200D02*
X222876190Y-143154819D01*
X222876190Y-143154819D02*
X222971428Y-143154819D01*
X222971428Y-143154819D02*
X223066666Y-143107200D01*
X223066666Y-143107200D02*
X223114285Y-143059580D01*
X223114285Y-143059580D02*
X223161904Y-142964342D01*
X223161904Y-142964342D02*
X223209523Y-142773866D01*
X223209523Y-142773866D02*
X223209523Y-142535771D01*
X223209523Y-142535771D02*
X223161904Y-142345295D01*
X223161904Y-142345295D02*
X223114285Y-142250057D01*
X223114285Y-142250057D02*
X223066666Y-142202438D01*
X223066666Y-142202438D02*
X222971428Y-142154819D01*
X231442857Y-116759580D02*
X231490476Y-116807200D01*
X231490476Y-116807200D02*
X231633333Y-116854819D01*
X231633333Y-116854819D02*
X231728571Y-116854819D01*
X231728571Y-116854819D02*
X231871428Y-116807200D01*
X231871428Y-116807200D02*
X231966666Y-116711961D01*
X231966666Y-116711961D02*
X232014285Y-116616723D01*
X232014285Y-116616723D02*
X232061904Y-116426247D01*
X232061904Y-116426247D02*
X232061904Y-116283390D01*
X232061904Y-116283390D02*
X232014285Y-116092914D01*
X232014285Y-116092914D02*
X231966666Y-115997676D01*
X231966666Y-115997676D02*
X231871428Y-115902438D01*
X231871428Y-115902438D02*
X231728571Y-115854819D01*
X231728571Y-115854819D02*
X231633333Y-115854819D01*
X231633333Y-115854819D02*
X231490476Y-115902438D01*
X231490476Y-115902438D02*
X231442857Y-115950057D01*
X231109523Y-115854819D02*
X230490476Y-115854819D01*
X230490476Y-115854819D02*
X230823809Y-116235771D01*
X230823809Y-116235771D02*
X230680952Y-116235771D01*
X230680952Y-116235771D02*
X230585714Y-116283390D01*
X230585714Y-116283390D02*
X230538095Y-116331009D01*
X230538095Y-116331009D02*
X230490476Y-116426247D01*
X230490476Y-116426247D02*
X230490476Y-116664342D01*
X230490476Y-116664342D02*
X230538095Y-116759580D01*
X230538095Y-116759580D02*
X230585714Y-116807200D01*
X230585714Y-116807200D02*
X230680952Y-116854819D01*
X230680952Y-116854819D02*
X230966666Y-116854819D01*
X230966666Y-116854819D02*
X231061904Y-116807200D01*
X231061904Y-116807200D02*
X231109523Y-116759580D01*
X230014285Y-116854819D02*
X229823809Y-116854819D01*
X229823809Y-116854819D02*
X229728571Y-116807200D01*
X229728571Y-116807200D02*
X229680952Y-116759580D01*
X229680952Y-116759580D02*
X229585714Y-116616723D01*
X229585714Y-116616723D02*
X229538095Y-116426247D01*
X229538095Y-116426247D02*
X229538095Y-116045295D01*
X229538095Y-116045295D02*
X229585714Y-115950057D01*
X229585714Y-115950057D02*
X229633333Y-115902438D01*
X229633333Y-115902438D02*
X229728571Y-115854819D01*
X229728571Y-115854819D02*
X229919047Y-115854819D01*
X229919047Y-115854819D02*
X230014285Y-115902438D01*
X230014285Y-115902438D02*
X230061904Y-115950057D01*
X230061904Y-115950057D02*
X230109523Y-116045295D01*
X230109523Y-116045295D02*
X230109523Y-116283390D01*
X230109523Y-116283390D02*
X230061904Y-116378628D01*
X230061904Y-116378628D02*
X230014285Y-116426247D01*
X230014285Y-116426247D02*
X229919047Y-116473866D01*
X229919047Y-116473866D02*
X229728571Y-116473866D01*
X229728571Y-116473866D02*
X229633333Y-116426247D01*
X229633333Y-116426247D02*
X229585714Y-116378628D01*
X229585714Y-116378628D02*
X229538095Y-116283390D01*
X227361904Y-131714819D02*
X227361904Y-132524342D01*
X227361904Y-132524342D02*
X227314285Y-132619580D01*
X227314285Y-132619580D02*
X227266666Y-132667200D01*
X227266666Y-132667200D02*
X227171428Y-132714819D01*
X227171428Y-132714819D02*
X226980952Y-132714819D01*
X226980952Y-132714819D02*
X226885714Y-132667200D01*
X226885714Y-132667200D02*
X226838095Y-132619580D01*
X226838095Y-132619580D02*
X226790476Y-132524342D01*
X226790476Y-132524342D02*
X226790476Y-131714819D01*
X225885714Y-131714819D02*
X226076190Y-131714819D01*
X226076190Y-131714819D02*
X226171428Y-131762438D01*
X226171428Y-131762438D02*
X226219047Y-131810057D01*
X226219047Y-131810057D02*
X226314285Y-131952914D01*
X226314285Y-131952914D02*
X226361904Y-132143390D01*
X226361904Y-132143390D02*
X226361904Y-132524342D01*
X226361904Y-132524342D02*
X226314285Y-132619580D01*
X226314285Y-132619580D02*
X226266666Y-132667200D01*
X226266666Y-132667200D02*
X226171428Y-132714819D01*
X226171428Y-132714819D02*
X225980952Y-132714819D01*
X225980952Y-132714819D02*
X225885714Y-132667200D01*
X225885714Y-132667200D02*
X225838095Y-132619580D01*
X225838095Y-132619580D02*
X225790476Y-132524342D01*
X225790476Y-132524342D02*
X225790476Y-132286247D01*
X225790476Y-132286247D02*
X225838095Y-132191009D01*
X225838095Y-132191009D02*
X225885714Y-132143390D01*
X225885714Y-132143390D02*
X225980952Y-132095771D01*
X225980952Y-132095771D02*
X226171428Y-132095771D01*
X226171428Y-132095771D02*
X226266666Y-132143390D01*
X226266666Y-132143390D02*
X226314285Y-132191009D01*
X226314285Y-132191009D02*
X226361904Y-132286247D01*
X226459580Y-69357142D02*
X226507200Y-69309523D01*
X226507200Y-69309523D02*
X226554819Y-69166666D01*
X226554819Y-69166666D02*
X226554819Y-69071428D01*
X226554819Y-69071428D02*
X226507200Y-68928571D01*
X226507200Y-68928571D02*
X226411961Y-68833333D01*
X226411961Y-68833333D02*
X226316723Y-68785714D01*
X226316723Y-68785714D02*
X226126247Y-68738095D01*
X226126247Y-68738095D02*
X225983390Y-68738095D01*
X225983390Y-68738095D02*
X225792914Y-68785714D01*
X225792914Y-68785714D02*
X225697676Y-68833333D01*
X225697676Y-68833333D02*
X225602438Y-68928571D01*
X225602438Y-68928571D02*
X225554819Y-69071428D01*
X225554819Y-69071428D02*
X225554819Y-69166666D01*
X225554819Y-69166666D02*
X225602438Y-69309523D01*
X225602438Y-69309523D02*
X225650057Y-69357142D01*
X225554819Y-70261904D02*
X225554819Y-69785714D01*
X225554819Y-69785714D02*
X226031009Y-69738095D01*
X226031009Y-69738095D02*
X225983390Y-69785714D01*
X225983390Y-69785714D02*
X225935771Y-69880952D01*
X225935771Y-69880952D02*
X225935771Y-70119047D01*
X225935771Y-70119047D02*
X225983390Y-70214285D01*
X225983390Y-70214285D02*
X226031009Y-70261904D01*
X226031009Y-70261904D02*
X226126247Y-70309523D01*
X226126247Y-70309523D02*
X226364342Y-70309523D01*
X226364342Y-70309523D02*
X226459580Y-70261904D01*
X226459580Y-70261904D02*
X226507200Y-70214285D01*
X226507200Y-70214285D02*
X226554819Y-70119047D01*
X226554819Y-70119047D02*
X226554819Y-69880952D01*
X226554819Y-69880952D02*
X226507200Y-69785714D01*
X226507200Y-69785714D02*
X226459580Y-69738095D01*
X225554819Y-70928571D02*
X225554819Y-71023809D01*
X225554819Y-71023809D02*
X225602438Y-71119047D01*
X225602438Y-71119047D02*
X225650057Y-71166666D01*
X225650057Y-71166666D02*
X225745295Y-71214285D01*
X225745295Y-71214285D02*
X225935771Y-71261904D01*
X225935771Y-71261904D02*
X226173866Y-71261904D01*
X226173866Y-71261904D02*
X226364342Y-71214285D01*
X226364342Y-71214285D02*
X226459580Y-71166666D01*
X226459580Y-71166666D02*
X226507200Y-71119047D01*
X226507200Y-71119047D02*
X226554819Y-71023809D01*
X226554819Y-71023809D02*
X226554819Y-70928571D01*
X226554819Y-70928571D02*
X226507200Y-70833333D01*
X226507200Y-70833333D02*
X226459580Y-70785714D01*
X226459580Y-70785714D02*
X226364342Y-70738095D01*
X226364342Y-70738095D02*
X226173866Y-70690476D01*
X226173866Y-70690476D02*
X225935771Y-70690476D01*
X225935771Y-70690476D02*
X225745295Y-70738095D01*
X225745295Y-70738095D02*
X225650057Y-70785714D01*
X225650057Y-70785714D02*
X225602438Y-70833333D01*
X225602438Y-70833333D02*
X225554819Y-70928571D01*
X236642857Y-143074819D02*
X236976190Y-142598628D01*
X237214285Y-143074819D02*
X237214285Y-142074819D01*
X237214285Y-142074819D02*
X236833333Y-142074819D01*
X236833333Y-142074819D02*
X236738095Y-142122438D01*
X236738095Y-142122438D02*
X236690476Y-142170057D01*
X236690476Y-142170057D02*
X236642857Y-142265295D01*
X236642857Y-142265295D02*
X236642857Y-142408152D01*
X236642857Y-142408152D02*
X236690476Y-142503390D01*
X236690476Y-142503390D02*
X236738095Y-142551009D01*
X236738095Y-142551009D02*
X236833333Y-142598628D01*
X236833333Y-142598628D02*
X237214285Y-142598628D01*
X235738095Y-142074819D02*
X236214285Y-142074819D01*
X236214285Y-142074819D02*
X236261904Y-142551009D01*
X236261904Y-142551009D02*
X236214285Y-142503390D01*
X236214285Y-142503390D02*
X236119047Y-142455771D01*
X236119047Y-142455771D02*
X235880952Y-142455771D01*
X235880952Y-142455771D02*
X235785714Y-142503390D01*
X235785714Y-142503390D02*
X235738095Y-142551009D01*
X235738095Y-142551009D02*
X235690476Y-142646247D01*
X235690476Y-142646247D02*
X235690476Y-142884342D01*
X235690476Y-142884342D02*
X235738095Y-142979580D01*
X235738095Y-142979580D02*
X235785714Y-143027200D01*
X235785714Y-143027200D02*
X235880952Y-143074819D01*
X235880952Y-143074819D02*
X236119047Y-143074819D01*
X236119047Y-143074819D02*
X236214285Y-143027200D01*
X236214285Y-143027200D02*
X236261904Y-142979580D01*
X235309523Y-142170057D02*
X235261904Y-142122438D01*
X235261904Y-142122438D02*
X235166666Y-142074819D01*
X235166666Y-142074819D02*
X234928571Y-142074819D01*
X234928571Y-142074819D02*
X234833333Y-142122438D01*
X234833333Y-142122438D02*
X234785714Y-142170057D01*
X234785714Y-142170057D02*
X234738095Y-142265295D01*
X234738095Y-142265295D02*
X234738095Y-142360533D01*
X234738095Y-142360533D02*
X234785714Y-142503390D01*
X234785714Y-142503390D02*
X235357142Y-143074819D01*
X235357142Y-143074819D02*
X234738095Y-143074819D01*
X233566666Y-109554819D02*
X233899999Y-109078628D01*
X234138094Y-109554819D02*
X234138094Y-108554819D01*
X234138094Y-108554819D02*
X233757142Y-108554819D01*
X233757142Y-108554819D02*
X233661904Y-108602438D01*
X233661904Y-108602438D02*
X233614285Y-108650057D01*
X233614285Y-108650057D02*
X233566666Y-108745295D01*
X233566666Y-108745295D02*
X233566666Y-108888152D01*
X233566666Y-108888152D02*
X233614285Y-108983390D01*
X233614285Y-108983390D02*
X233661904Y-109031009D01*
X233661904Y-109031009D02*
X233757142Y-109078628D01*
X233757142Y-109078628D02*
X234138094Y-109078628D01*
X233090475Y-109554819D02*
X232899999Y-109554819D01*
X232899999Y-109554819D02*
X232804761Y-109507200D01*
X232804761Y-109507200D02*
X232757142Y-109459580D01*
X232757142Y-109459580D02*
X232661904Y-109316723D01*
X232661904Y-109316723D02*
X232614285Y-109126247D01*
X232614285Y-109126247D02*
X232614285Y-108745295D01*
X232614285Y-108745295D02*
X232661904Y-108650057D01*
X232661904Y-108650057D02*
X232709523Y-108602438D01*
X232709523Y-108602438D02*
X232804761Y-108554819D01*
X232804761Y-108554819D02*
X232995237Y-108554819D01*
X232995237Y-108554819D02*
X233090475Y-108602438D01*
X233090475Y-108602438D02*
X233138094Y-108650057D01*
X233138094Y-108650057D02*
X233185713Y-108745295D01*
X233185713Y-108745295D02*
X233185713Y-108983390D01*
X233185713Y-108983390D02*
X233138094Y-109078628D01*
X233138094Y-109078628D02*
X233090475Y-109126247D01*
X233090475Y-109126247D02*
X232995237Y-109173866D01*
X232995237Y-109173866D02*
X232804761Y-109173866D01*
X232804761Y-109173866D02*
X232709523Y-109126247D01*
X232709523Y-109126247D02*
X232661904Y-109078628D01*
X232661904Y-109078628D02*
X232614285Y-108983390D01*
X226859580Y-118557142D02*
X226907200Y-118509523D01*
X226907200Y-118509523D02*
X226954819Y-118366666D01*
X226954819Y-118366666D02*
X226954819Y-118271428D01*
X226954819Y-118271428D02*
X226907200Y-118128571D01*
X226907200Y-118128571D02*
X226811961Y-118033333D01*
X226811961Y-118033333D02*
X226716723Y-117985714D01*
X226716723Y-117985714D02*
X226526247Y-117938095D01*
X226526247Y-117938095D02*
X226383390Y-117938095D01*
X226383390Y-117938095D02*
X226192914Y-117985714D01*
X226192914Y-117985714D02*
X226097676Y-118033333D01*
X226097676Y-118033333D02*
X226002438Y-118128571D01*
X226002438Y-118128571D02*
X225954819Y-118271428D01*
X225954819Y-118271428D02*
X225954819Y-118366666D01*
X225954819Y-118366666D02*
X226002438Y-118509523D01*
X226002438Y-118509523D02*
X226050057Y-118557142D01*
X225954819Y-119461904D02*
X225954819Y-118985714D01*
X225954819Y-118985714D02*
X226431009Y-118938095D01*
X226431009Y-118938095D02*
X226383390Y-118985714D01*
X226383390Y-118985714D02*
X226335771Y-119080952D01*
X226335771Y-119080952D02*
X226335771Y-119319047D01*
X226335771Y-119319047D02*
X226383390Y-119414285D01*
X226383390Y-119414285D02*
X226431009Y-119461904D01*
X226431009Y-119461904D02*
X226526247Y-119509523D01*
X226526247Y-119509523D02*
X226764342Y-119509523D01*
X226764342Y-119509523D02*
X226859580Y-119461904D01*
X226859580Y-119461904D02*
X226907200Y-119414285D01*
X226907200Y-119414285D02*
X226954819Y-119319047D01*
X226954819Y-119319047D02*
X226954819Y-119080952D01*
X226954819Y-119080952D02*
X226907200Y-118985714D01*
X226907200Y-118985714D02*
X226859580Y-118938095D01*
X226288152Y-120366666D02*
X226954819Y-120366666D01*
X225907200Y-120128571D02*
X226621485Y-119890476D01*
X226621485Y-119890476D02*
X226621485Y-120509523D01*
X227466666Y-126954819D02*
X227799999Y-126478628D01*
X228038094Y-126954819D02*
X228038094Y-125954819D01*
X228038094Y-125954819D02*
X227657142Y-125954819D01*
X227657142Y-125954819D02*
X227561904Y-126002438D01*
X227561904Y-126002438D02*
X227514285Y-126050057D01*
X227514285Y-126050057D02*
X227466666Y-126145295D01*
X227466666Y-126145295D02*
X227466666Y-126288152D01*
X227466666Y-126288152D02*
X227514285Y-126383390D01*
X227514285Y-126383390D02*
X227561904Y-126431009D01*
X227561904Y-126431009D02*
X227657142Y-126478628D01*
X227657142Y-126478628D02*
X228038094Y-126478628D01*
X226895237Y-126383390D02*
X226990475Y-126335771D01*
X226990475Y-126335771D02*
X227038094Y-126288152D01*
X227038094Y-126288152D02*
X227085713Y-126192914D01*
X227085713Y-126192914D02*
X227085713Y-126145295D01*
X227085713Y-126145295D02*
X227038094Y-126050057D01*
X227038094Y-126050057D02*
X226990475Y-126002438D01*
X226990475Y-126002438D02*
X226895237Y-125954819D01*
X226895237Y-125954819D02*
X226704761Y-125954819D01*
X226704761Y-125954819D02*
X226609523Y-126002438D01*
X226609523Y-126002438D02*
X226561904Y-126050057D01*
X226561904Y-126050057D02*
X226514285Y-126145295D01*
X226514285Y-126145295D02*
X226514285Y-126192914D01*
X226514285Y-126192914D02*
X226561904Y-126288152D01*
X226561904Y-126288152D02*
X226609523Y-126335771D01*
X226609523Y-126335771D02*
X226704761Y-126383390D01*
X226704761Y-126383390D02*
X226895237Y-126383390D01*
X226895237Y-126383390D02*
X226990475Y-126431009D01*
X226990475Y-126431009D02*
X227038094Y-126478628D01*
X227038094Y-126478628D02*
X227085713Y-126573866D01*
X227085713Y-126573866D02*
X227085713Y-126764342D01*
X227085713Y-126764342D02*
X227038094Y-126859580D01*
X227038094Y-126859580D02*
X226990475Y-126907200D01*
X226990475Y-126907200D02*
X226895237Y-126954819D01*
X226895237Y-126954819D02*
X226704761Y-126954819D01*
X226704761Y-126954819D02*
X226609523Y-126907200D01*
X226609523Y-126907200D02*
X226561904Y-126859580D01*
X226561904Y-126859580D02*
X226514285Y-126764342D01*
X226514285Y-126764342D02*
X226514285Y-126573866D01*
X226514285Y-126573866D02*
X226561904Y-126478628D01*
X226561904Y-126478628D02*
X226609523Y-126431009D01*
X226609523Y-126431009D02*
X226704761Y-126383390D01*
X226559580Y-94157142D02*
X226607200Y-94109523D01*
X226607200Y-94109523D02*
X226654819Y-93966666D01*
X226654819Y-93966666D02*
X226654819Y-93871428D01*
X226654819Y-93871428D02*
X226607200Y-93728571D01*
X226607200Y-93728571D02*
X226511961Y-93633333D01*
X226511961Y-93633333D02*
X226416723Y-93585714D01*
X226416723Y-93585714D02*
X226226247Y-93538095D01*
X226226247Y-93538095D02*
X226083390Y-93538095D01*
X226083390Y-93538095D02*
X225892914Y-93585714D01*
X225892914Y-93585714D02*
X225797676Y-93633333D01*
X225797676Y-93633333D02*
X225702438Y-93728571D01*
X225702438Y-93728571D02*
X225654819Y-93871428D01*
X225654819Y-93871428D02*
X225654819Y-93966666D01*
X225654819Y-93966666D02*
X225702438Y-94109523D01*
X225702438Y-94109523D02*
X225750057Y-94157142D01*
X225654819Y-95061904D02*
X225654819Y-94585714D01*
X225654819Y-94585714D02*
X226131009Y-94538095D01*
X226131009Y-94538095D02*
X226083390Y-94585714D01*
X226083390Y-94585714D02*
X226035771Y-94680952D01*
X226035771Y-94680952D02*
X226035771Y-94919047D01*
X226035771Y-94919047D02*
X226083390Y-95014285D01*
X226083390Y-95014285D02*
X226131009Y-95061904D01*
X226131009Y-95061904D02*
X226226247Y-95109523D01*
X226226247Y-95109523D02*
X226464342Y-95109523D01*
X226464342Y-95109523D02*
X226559580Y-95061904D01*
X226559580Y-95061904D02*
X226607200Y-95014285D01*
X226607200Y-95014285D02*
X226654819Y-94919047D01*
X226654819Y-94919047D02*
X226654819Y-94680952D01*
X226654819Y-94680952D02*
X226607200Y-94585714D01*
X226607200Y-94585714D02*
X226559580Y-94538095D01*
X225654819Y-96014285D02*
X225654819Y-95538095D01*
X225654819Y-95538095D02*
X226131009Y-95490476D01*
X226131009Y-95490476D02*
X226083390Y-95538095D01*
X226083390Y-95538095D02*
X226035771Y-95633333D01*
X226035771Y-95633333D02*
X226035771Y-95871428D01*
X226035771Y-95871428D02*
X226083390Y-95966666D01*
X226083390Y-95966666D02*
X226131009Y-96014285D01*
X226131009Y-96014285D02*
X226226247Y-96061904D01*
X226226247Y-96061904D02*
X226464342Y-96061904D01*
X226464342Y-96061904D02*
X226559580Y-96014285D01*
X226559580Y-96014285D02*
X226607200Y-95966666D01*
X226607200Y-95966666D02*
X226654819Y-95871428D01*
X226654819Y-95871428D02*
X226654819Y-95633333D01*
X226654819Y-95633333D02*
X226607200Y-95538095D01*
X226607200Y-95538095D02*
X226559580Y-95490476D01*
D11*
%TO.C,U5*%
X227100000Y-108740000D02*
X225150000Y-108740000D01*
X227100000Y-108740000D02*
X229050000Y-108740000D01*
X227100000Y-113860000D02*
X225150000Y-113860000D01*
X227100000Y-113860000D02*
X229050000Y-113860000D01*
X229800000Y-108835000D02*
X229560000Y-108505000D01*
X230040000Y-108505000D01*
X229800000Y-108835000D01*
G36*
X229800000Y-108835000D02*
G01*
X229560000Y-108505000D01*
X230040000Y-108505000D01*
X229800000Y-108835000D01*
G37*
%TO.C,R51*%
X235590000Y-111372936D02*
X235590000Y-112827064D01*
X237410000Y-111372936D02*
X237410000Y-112827064D01*
%TO.C,R10*%
X230172936Y-139890000D02*
X231627064Y-139890000D01*
X230172936Y-141710000D02*
X231627064Y-141710000D01*
%TO.C,C40*%
X223226248Y-139790000D02*
X224648752Y-139790000D01*
X223226248Y-141610000D02*
X224648752Y-141610000D01*
%TO.C,C39*%
X234388748Y-115390000D02*
X235811252Y-115390000D01*
X234388748Y-117210000D02*
X235811252Y-117210000D01*
%TO.C,U6*%
X226600000Y-133100000D02*
X224650000Y-133100000D01*
X226600000Y-133100000D02*
X228550000Y-133100000D01*
X226600000Y-138220000D02*
X224650000Y-138220000D01*
X226600000Y-138220000D02*
X228550000Y-138220000D01*
X229300000Y-133195000D02*
X229060000Y-132865000D01*
X229540000Y-132865000D01*
X229300000Y-133195000D01*
G36*
X229300000Y-133195000D02*
G01*
X229060000Y-132865000D01*
X229540000Y-132865000D01*
X229300000Y-133195000D01*
G37*
D12*
%TO.C,G\u002A\u002A\u002A*%
G36*
X173260121Y-102858531D02*
G01*
X173247910Y-102870742D01*
X173235698Y-102858531D01*
X173247910Y-102846319D01*
X173260121Y-102858531D01*
G37*
G36*
X173357814Y-102907377D02*
G01*
X173345602Y-102919588D01*
X173333391Y-102907377D01*
X173345602Y-102895165D01*
X173357814Y-102907377D01*
G37*
G36*
X173357814Y-103395838D02*
G01*
X173345602Y-103408050D01*
X173333391Y-103395838D01*
X173345602Y-103383627D01*
X173357814Y-103395838D01*
G37*
G36*
X173455506Y-102736415D02*
G01*
X173443294Y-102748627D01*
X173431083Y-102736415D01*
X173443294Y-102724204D01*
X173455506Y-102736415D01*
G37*
G36*
X173626468Y-103444684D02*
G01*
X173614256Y-103456896D01*
X173602044Y-103444684D01*
X173614256Y-103432473D01*
X173626468Y-103444684D01*
G37*
G36*
X173724160Y-103615646D02*
G01*
X173711948Y-103627857D01*
X173699737Y-103615646D01*
X173711948Y-103603434D01*
X173724160Y-103615646D01*
G37*
G36*
X173821852Y-110038915D02*
G01*
X173809641Y-110051127D01*
X173797429Y-110038915D01*
X173809641Y-110026704D01*
X173821852Y-110038915D01*
G37*
G36*
X173846275Y-109696992D02*
G01*
X173834064Y-109709204D01*
X173821852Y-109696992D01*
X173834064Y-109684781D01*
X173846275Y-109696992D01*
G37*
G36*
X173919544Y-102834107D02*
G01*
X173907333Y-102846319D01*
X173895121Y-102834107D01*
X173907333Y-102821896D01*
X173919544Y-102834107D01*
G37*
G36*
X173919544Y-109672569D02*
G01*
X173907333Y-109684781D01*
X173895121Y-109672569D01*
X173907333Y-109660357D01*
X173919544Y-109672569D01*
G37*
G36*
X174041660Y-102931800D02*
G01*
X174029448Y-102944011D01*
X174017237Y-102931800D01*
X174029448Y-102919588D01*
X174041660Y-102931800D01*
G37*
G36*
X174041660Y-109623723D02*
G01*
X174029448Y-109635934D01*
X174017237Y-109623723D01*
X174029448Y-109611511D01*
X174041660Y-109623723D01*
G37*
G36*
X174090506Y-102907377D02*
G01*
X174078294Y-102919588D01*
X174066083Y-102907377D01*
X174078294Y-102895165D01*
X174090506Y-102907377D01*
G37*
G36*
X174114929Y-110258723D02*
G01*
X174102718Y-110270934D01*
X174090506Y-110258723D01*
X174102718Y-110246511D01*
X174114929Y-110258723D01*
G37*
G36*
X174163775Y-109574877D02*
G01*
X174151564Y-109587088D01*
X174139352Y-109574877D01*
X174151564Y-109562665D01*
X174163775Y-109574877D01*
G37*
G36*
X174188198Y-110307569D02*
G01*
X174175987Y-110319781D01*
X174163775Y-110307569D01*
X174175987Y-110295357D01*
X174188198Y-110307569D01*
G37*
G36*
X174408006Y-109745838D02*
G01*
X174395794Y-109758050D01*
X174383583Y-109745838D01*
X174395794Y-109733627D01*
X174408006Y-109745838D01*
G37*
G36*
X174432429Y-103029492D02*
G01*
X174420218Y-103041704D01*
X174408006Y-103029492D01*
X174420218Y-103017281D01*
X174432429Y-103029492D01*
G37*
G36*
X174725506Y-109843531D02*
G01*
X174713294Y-109855742D01*
X174701083Y-109843531D01*
X174713294Y-109831319D01*
X174725506Y-109843531D01*
G37*
G36*
X173211275Y-103188242D02*
G01*
X173209513Y-103201172D01*
X173194993Y-103204524D01*
X173192070Y-103200944D01*
X173194993Y-103171960D01*
X173202339Y-103168139D01*
X173211275Y-103188242D01*
G37*
G36*
X174054589Y-103702889D02*
G01*
X174057942Y-103717409D01*
X174054362Y-103720332D01*
X174025378Y-103717409D01*
X174021557Y-103710063D01*
X174041660Y-103701127D01*
X174054589Y-103702889D01*
G37*
G36*
X174640743Y-109808658D02*
G01*
X174644096Y-109823178D01*
X174640516Y-109826101D01*
X174611532Y-109823178D01*
X174607711Y-109815832D01*
X174627814Y-109806896D01*
X174640743Y-109808658D01*
G37*
G36*
X174787282Y-103092312D02*
G01*
X174790634Y-103106832D01*
X174787055Y-103109755D01*
X174758070Y-103106832D01*
X174754249Y-103099486D01*
X174774352Y-103090550D01*
X174787282Y-103092312D01*
G37*
G36*
X173364326Y-102800503D02*
G01*
X173346369Y-102814440D01*
X173320533Y-102817179D01*
X173320747Y-102806179D01*
X173350655Y-102786832D01*
X173355288Y-102785093D01*
X173379760Y-102779968D01*
X173364326Y-102800503D01*
G37*
G36*
X173622694Y-103564468D02*
G01*
X173633543Y-103572007D01*
X173650891Y-103592664D01*
X173650653Y-103596078D01*
X173636515Y-103601457D01*
X173611924Y-103575238D01*
X173605981Y-103561589D01*
X173622694Y-103564468D01*
G37*
G36*
X173808696Y-103643086D02*
G01*
X173828242Y-103653089D01*
X173836949Y-103669748D01*
X173821414Y-103671442D01*
X173780944Y-103655262D01*
X173753069Y-103634930D01*
X173762321Y-103629249D01*
X173808696Y-103643086D01*
G37*
G36*
X173915771Y-110134275D02*
G01*
X173920743Y-110137520D01*
X173943236Y-110161651D01*
X173933197Y-110173242D01*
X173927704Y-110171059D01*
X173905001Y-110145045D01*
X173899058Y-110131397D01*
X173915771Y-110134275D01*
G37*
G36*
X174121442Y-102947042D02*
G01*
X174103484Y-102960978D01*
X174077648Y-102963718D01*
X174077863Y-102952718D01*
X174107770Y-102933370D01*
X174112403Y-102931631D01*
X174136876Y-102926507D01*
X174121442Y-102947042D01*
G37*
G36*
X174233271Y-109621391D02*
G01*
X174244120Y-109628930D01*
X174261468Y-109649587D01*
X174261230Y-109653002D01*
X174247092Y-109658380D01*
X174222501Y-109632161D01*
X174216558Y-109618512D01*
X174233271Y-109621391D01*
G37*
G36*
X174330963Y-109694660D02*
G01*
X174341813Y-109702199D01*
X174359160Y-109722856D01*
X174358922Y-109726271D01*
X174344784Y-109731649D01*
X174320193Y-109705430D01*
X174314251Y-109691781D01*
X174330963Y-109694660D01*
G37*
G36*
X174464011Y-109747408D02*
G01*
X174486804Y-109759588D01*
X174494133Y-109777756D01*
X174482361Y-109780372D01*
X174450339Y-109761080D01*
X174447184Y-109757864D01*
X174435478Y-109739973D01*
X174464011Y-109747408D01*
G37*
G36*
X173235698Y-102904494D02*
G01*
X173234599Y-102908788D01*
X173211275Y-102931800D01*
X173202628Y-102936349D01*
X173186852Y-102934682D01*
X173187951Y-102930388D01*
X173211275Y-102907377D01*
X173219922Y-102902828D01*
X173235698Y-102904494D01*
G37*
G36*
X173711389Y-102674893D02*
G01*
X173726371Y-102687903D01*
X173747250Y-102715689D01*
X173726773Y-102724204D01*
X173713431Y-102718519D01*
X173689579Y-102684114D01*
X173686702Y-102676370D01*
X173684911Y-102657074D01*
X173711389Y-102674893D01*
G37*
G36*
X178315698Y-107972571D02*
G01*
X178315698Y-112886179D01*
X178119877Y-112879086D01*
X177924055Y-112871992D01*
X177924677Y-108212155D01*
X177925299Y-103552318D01*
X178120499Y-103305641D01*
X178315698Y-103058963D01*
X178315698Y-107972571D01*
G37*
G36*
X173815282Y-109745356D02*
G01*
X173798719Y-109779672D01*
X173771953Y-109818979D01*
X173745918Y-109845177D01*
X173743269Y-109846593D01*
X173739911Y-109836285D01*
X173761070Y-109797691D01*
X173762464Y-109795573D01*
X173794299Y-109751750D01*
X173813309Y-109733627D01*
X173815282Y-109745356D01*
G37*
G36*
X173817862Y-102776226D02*
G01*
X173848370Y-102799456D01*
X173857966Y-102818346D01*
X173845759Y-102819029D01*
X173811301Y-102798851D01*
X173786496Y-102785421D01*
X173743547Y-102786742D01*
X173724900Y-102794530D01*
X173739598Y-102774628D01*
X173741059Y-102773069D01*
X173772727Y-102757198D01*
X173817862Y-102776226D01*
G37*
G36*
X178129912Y-90611414D02*
G01*
X178225725Y-90614387D01*
X178292940Y-90618816D01*
X178321434Y-90624234D01*
X178327408Y-90636155D01*
X178329319Y-90679186D01*
X178328819Y-90681986D01*
X178318606Y-90698805D01*
X178291166Y-90710476D01*
X178238594Y-90718251D01*
X178152986Y-90723382D01*
X178026436Y-90727119D01*
X177729544Y-90733976D01*
X177729544Y-90672167D01*
X177729544Y-90610357D01*
X178018551Y-90610357D01*
X178129912Y-90611414D01*
G37*
G36*
X178129798Y-95447359D02*
G01*
X178226269Y-95450847D01*
X178294360Y-95456045D01*
X178323839Y-95462409D01*
X178332148Y-95477028D01*
X178340121Y-95523466D01*
X178339005Y-95535226D01*
X178328681Y-95550187D01*
X178300964Y-95559816D01*
X178247991Y-95565266D01*
X178161902Y-95567690D01*
X178034833Y-95568242D01*
X177729544Y-95568242D01*
X177729544Y-95507184D01*
X177729544Y-95446127D01*
X178018551Y-95446127D01*
X178129798Y-95447359D01*
G37*
G36*
X178315698Y-83978504D02*
G01*
X178315698Y-85017473D01*
X178120314Y-85017473D01*
X177924929Y-85017473D01*
X177924929Y-84003915D01*
X177924897Y-83899900D01*
X177924626Y-83688393D01*
X177924105Y-83494540D01*
X177923365Y-83323540D01*
X177922435Y-83180592D01*
X177921348Y-83070893D01*
X177920134Y-82999643D01*
X177918823Y-82972040D01*
X177920666Y-82968859D01*
X177954718Y-82959787D01*
X178022874Y-82951903D01*
X178114208Y-82946629D01*
X178315698Y-82939536D01*
X178315698Y-83978504D01*
G37*
G36*
X175825341Y-109663623D02*
G01*
X175860512Y-109667785D01*
X176065266Y-109707619D01*
X176258030Y-109770387D01*
X176426801Y-109851468D01*
X176559577Y-109946243D01*
X176619797Y-110012279D01*
X176655315Y-110094165D01*
X176642551Y-110171318D01*
X176581707Y-110243582D01*
X176472988Y-110310802D01*
X176316597Y-110372821D01*
X176112737Y-110429484D01*
X175861611Y-110480636D01*
X175797412Y-110491745D01*
X175698441Y-110507207D01*
X175642489Y-110512169D01*
X175626308Y-110506213D01*
X175646650Y-110488921D01*
X175700267Y-110459874D01*
X175750540Y-110431028D01*
X175856106Y-110338079D01*
X175920787Y-110226813D01*
X175944015Y-110104181D01*
X175925222Y-109977134D01*
X175863839Y-109852622D01*
X175759300Y-109737598D01*
X175650958Y-109644990D01*
X175825341Y-109663623D01*
G37*
G36*
X177785878Y-98532718D02*
G01*
X177810620Y-98566835D01*
X177822535Y-98639655D01*
X177830045Y-98743242D01*
X178072872Y-98743242D01*
X178129134Y-98743279D01*
X178220147Y-98744412D01*
X178275366Y-98748832D01*
X178303736Y-98758787D01*
X178314198Y-98776527D01*
X178315698Y-98804300D01*
X178315698Y-98865357D01*
X178071468Y-98865357D01*
X177827237Y-98865357D01*
X177827237Y-98975261D01*
X177827218Y-98983157D01*
X177823350Y-99048115D01*
X177808916Y-99077974D01*
X177778391Y-99085165D01*
X177766074Y-99084477D01*
X177749127Y-99076339D01*
X177738424Y-99052312D01*
X177732542Y-99004157D01*
X177730056Y-98923635D01*
X177729544Y-98802509D01*
X177729594Y-98759135D01*
X177730752Y-98651640D01*
X177734377Y-98582635D01*
X177741691Y-98544259D01*
X177753920Y-98528653D01*
X177772285Y-98527960D01*
X177785878Y-98532718D01*
G37*
G36*
X175714719Y-102783240D02*
G01*
X175812699Y-102794968D01*
X176013083Y-102833444D01*
X176209634Y-102888751D01*
X176393353Y-102957305D01*
X176555238Y-103035519D01*
X176686290Y-103119810D01*
X176777509Y-103206591D01*
X176810842Y-103271757D01*
X176825891Y-103353508D01*
X176812465Y-103423519D01*
X176755786Y-103506926D01*
X176653953Y-103584026D01*
X176506090Y-103655312D01*
X176311322Y-103721282D01*
X176068775Y-103782430D01*
X175972207Y-103802897D01*
X175842635Y-103828068D01*
X175726707Y-103848205D01*
X175641371Y-103860222D01*
X175494833Y-103875989D01*
X175601578Y-103821182D01*
X175679105Y-103774004D01*
X175787016Y-103681978D01*
X175871663Y-103577301D01*
X175921170Y-103472917D01*
X175934566Y-103393455D01*
X175923531Y-103253369D01*
X175875113Y-103113211D01*
X175794039Y-102984847D01*
X175685034Y-102880142D01*
X175620840Y-102832369D01*
X175579177Y-102795596D01*
X175579939Y-102778407D01*
X175624620Y-102775917D01*
X175714719Y-102783240D01*
G37*
G36*
X178156919Y-94562867D02*
G01*
X178244544Y-94614599D01*
X178305727Y-94696698D01*
X178325003Y-94760028D01*
X178332338Y-94842008D01*
X178326236Y-94924573D01*
X178309121Y-94997842D01*
X178283414Y-95051931D01*
X178251539Y-95076958D01*
X178215918Y-95063039D01*
X178201639Y-95036405D01*
X178215743Y-94986316D01*
X178218566Y-94980906D01*
X178246200Y-94883861D01*
X178233537Y-94794990D01*
X178186663Y-94723792D01*
X178111662Y-94679764D01*
X178014620Y-94672405D01*
X177923432Y-94697045D01*
X177852132Y-94752605D01*
X177821253Y-94835306D01*
X177831871Y-94943552D01*
X177838766Y-94993999D01*
X177822376Y-95049003D01*
X177819045Y-95052776D01*
X177789104Y-95064410D01*
X177764087Y-95038261D01*
X177745530Y-94984257D01*
X177734968Y-94912324D01*
X177733934Y-94832388D01*
X177743964Y-94754375D01*
X177766592Y-94688212D01*
X177781344Y-94663374D01*
X177855065Y-94591756D01*
X177950213Y-94551257D01*
X178054820Y-94541691D01*
X178156919Y-94562867D01*
G37*
G36*
X178129798Y-89805629D02*
G01*
X178226269Y-89809116D01*
X178294360Y-89814315D01*
X178323839Y-89820678D01*
X178340672Y-89848909D01*
X178327592Y-89886345D01*
X178276335Y-89915453D01*
X178193182Y-89930934D01*
X178083679Y-89938723D01*
X178081047Y-90051444D01*
X178078815Y-90094448D01*
X178065141Y-90173749D01*
X178044487Y-90212516D01*
X178022608Y-90209349D01*
X178005260Y-90162847D01*
X177998198Y-90071608D01*
X177998194Y-90067711D01*
X177994623Y-89995216D01*
X177981699Y-89959457D01*
X177955458Y-89949066D01*
X177933556Y-89947522D01*
X177869977Y-89939015D01*
X177850737Y-89938829D01*
X177835772Y-89956142D01*
X177828893Y-90002359D01*
X177827237Y-90087422D01*
X177826001Y-90166318D01*
X177819710Y-90216720D01*
X177804969Y-90238998D01*
X177778391Y-90244011D01*
X177759131Y-90241883D01*
X177743088Y-90228179D01*
X177734186Y-90193530D01*
X177730361Y-90128637D01*
X177729544Y-90024204D01*
X177729544Y-89804396D01*
X178018551Y-89804396D01*
X178129798Y-89805629D01*
G37*
G36*
X178315698Y-99659107D02*
G01*
X178315663Y-99681285D01*
X178313735Y-99785017D01*
X178307990Y-99849268D01*
X178297210Y-99881987D01*
X178280180Y-99891127D01*
X178274833Y-99890533D01*
X178256077Y-99871336D01*
X178244297Y-99819223D01*
X178237439Y-99726271D01*
X178230218Y-99561415D01*
X178150843Y-99553762D01*
X178071468Y-99546109D01*
X178071468Y-99681983D01*
X178070966Y-99728333D01*
X178065672Y-99785694D01*
X178051318Y-99811723D01*
X178023898Y-99817857D01*
X178013874Y-99817331D01*
X177989420Y-99804473D01*
X177976083Y-99765733D01*
X177968946Y-99689636D01*
X177965125Y-99635764D01*
X177955768Y-99586348D01*
X177936393Y-99565620D01*
X177900506Y-99561415D01*
X177896521Y-99561430D01*
X177864621Y-99565606D01*
X177846612Y-99584957D01*
X177837471Y-99630702D01*
X177832177Y-99714059D01*
X177828170Y-99779060D01*
X177819553Y-99834950D01*
X177803867Y-99860565D01*
X177777225Y-99866704D01*
X177759330Y-99864699D01*
X177743283Y-99851060D01*
X177734310Y-99816392D01*
X177730401Y-99751427D01*
X177729544Y-99646896D01*
X177729544Y-99427088D01*
X178022621Y-99427088D01*
X178315698Y-99427088D01*
X178315698Y-99659107D01*
G37*
G36*
X178056620Y-88803560D02*
G01*
X178169028Y-88822730D01*
X178249568Y-88872958D01*
X178306379Y-88958827D01*
X178310133Y-88967807D01*
X178329463Y-89053468D01*
X178331673Y-89153348D01*
X178319916Y-89222699D01*
X178269079Y-89326138D01*
X178183325Y-89396910D01*
X178066274Y-89431223D01*
X177962759Y-89430245D01*
X177858501Y-89393193D01*
X177783783Y-89319563D01*
X177741690Y-89212667D01*
X177737949Y-89132463D01*
X177832222Y-89132463D01*
X177841056Y-89193291D01*
X177867727Y-89237230D01*
X177925755Y-89272683D01*
X177957206Y-89286873D01*
X178025856Y-89302315D01*
X178102535Y-89289932D01*
X178115096Y-89286097D01*
X178178853Y-89255447D01*
X178217719Y-89218779D01*
X178240570Y-89156495D01*
X178237842Y-89068605D01*
X178196238Y-88994835D01*
X178121727Y-88944062D01*
X178020279Y-88925165D01*
X177972614Y-88928996D01*
X177890626Y-88963752D01*
X177843005Y-89032482D01*
X177832222Y-89132463D01*
X177737949Y-89132463D01*
X177735307Y-89075817D01*
X177736611Y-89060984D01*
X177749640Y-88979455D01*
X177775762Y-88923344D01*
X177823866Y-88872216D01*
X177881455Y-88829144D01*
X177942889Y-88808301D01*
X178020279Y-88803624D01*
X178029784Y-88803050D01*
X178056620Y-88803560D01*
G37*
G36*
X178129669Y-95984750D02*
G01*
X178226455Y-95988423D01*
X178294872Y-95993883D01*
X178324684Y-96000561D01*
X178331512Y-96012108D01*
X178334452Y-96055513D01*
X178334343Y-96056052D01*
X178321403Y-96074639D01*
X178286223Y-96086038D01*
X178219958Y-96091766D01*
X178113763Y-96093338D01*
X178070217Y-96093596D01*
X177983596Y-96095908D01*
X177923932Y-96100103D01*
X177902168Y-96105550D01*
X177911566Y-96114894D01*
X177954183Y-96146746D01*
X178023212Y-96194548D01*
X178109853Y-96252088D01*
X178158516Y-96284440D01*
X178255541Y-96355574D01*
X178313617Y-96411744D01*
X178336525Y-96457177D01*
X178328045Y-96496100D01*
X178306272Y-96504791D01*
X178242102Y-96513208D01*
X178144303Y-96518747D01*
X178021180Y-96520742D01*
X177729544Y-96520742D01*
X177729544Y-96456297D01*
X177729544Y-96391851D01*
X177955458Y-96404565D01*
X178023215Y-96408131D01*
X178101422Y-96410540D01*
X178141291Y-96407855D01*
X178149302Y-96399328D01*
X178131932Y-96384211D01*
X178052498Y-96330886D01*
X177935498Y-96250886D01*
X177851275Y-96190236D01*
X177794422Y-96144402D01*
X177759534Y-96108849D01*
X177741204Y-96079042D01*
X177734028Y-96050447D01*
X177726300Y-95983434D01*
X178016929Y-95983434D01*
X178129669Y-95984750D01*
G37*
G36*
X178129906Y-87045653D02*
G01*
X178225753Y-87048653D01*
X178293012Y-87053120D01*
X178321555Y-87058586D01*
X178323542Y-87062714D01*
X178328969Y-87104033D01*
X178331898Y-87177948D01*
X178331731Y-87271929D01*
X178331494Y-87283694D01*
X178327805Y-87380139D01*
X178320310Y-87438437D01*
X178306826Y-87468323D01*
X178285169Y-87479530D01*
X178264995Y-87479398D01*
X178250614Y-87461051D01*
X178244014Y-87413618D01*
X178242429Y-87327244D01*
X178242429Y-87166704D01*
X178156948Y-87166704D01*
X178071468Y-87166704D01*
X178071468Y-87301031D01*
X178070947Y-87348156D01*
X178065555Y-87404319D01*
X178050849Y-87429527D01*
X178022621Y-87435357D01*
X178005485Y-87433925D01*
X177985062Y-87419097D01*
X177975895Y-87378658D01*
X177973775Y-87301031D01*
X177973775Y-87298976D01*
X177972469Y-87223073D01*
X177964195Y-87183741D01*
X177942393Y-87168959D01*
X177900506Y-87166704D01*
X177827237Y-87166704D01*
X177827237Y-87325454D01*
X177825926Y-87407294D01*
X177819563Y-87457217D01*
X177804825Y-87479256D01*
X177778391Y-87484204D01*
X177759131Y-87482075D01*
X177743088Y-87468372D01*
X177734186Y-87433722D01*
X177730361Y-87368829D01*
X177729544Y-87264396D01*
X177729544Y-87044588D01*
X178018551Y-87044588D01*
X178129906Y-87045653D01*
G37*
G36*
X178108903Y-101112454D02*
G01*
X178204935Y-101114002D01*
X178265536Y-101118294D01*
X178298800Y-101126679D01*
X178312823Y-101140507D01*
X178315698Y-101161127D01*
X178314737Y-101175358D01*
X178304005Y-101194138D01*
X178273456Y-101204889D01*
X178213415Y-101210061D01*
X178114208Y-101212099D01*
X177912718Y-101214226D01*
X178089785Y-101298174D01*
X178138676Y-101322055D01*
X178223362Y-101371213D01*
X178261792Y-101412568D01*
X178254210Y-101450944D01*
X178200863Y-101491162D01*
X178101996Y-101538045D01*
X178093178Y-101541816D01*
X178011331Y-101577974D01*
X177948722Y-101607604D01*
X177918289Y-101624610D01*
X177918762Y-101627664D01*
X177950335Y-101632259D01*
X178016554Y-101633119D01*
X178107568Y-101629964D01*
X178315698Y-101619040D01*
X178315698Y-101683160D01*
X178315698Y-101747281D01*
X178022621Y-101747281D01*
X177729544Y-101747281D01*
X177729544Y-101677512D01*
X177731238Y-101651703D01*
X177743559Y-101622109D01*
X177775247Y-101594295D01*
X177834881Y-101561413D01*
X177931035Y-101516614D01*
X178132525Y-101425485D01*
X177980903Y-101356334D01*
X177901658Y-101321053D01*
X177826834Y-101289424D01*
X177779413Y-101271355D01*
X177742736Y-101244900D01*
X177729544Y-101183904D01*
X177729544Y-101112281D01*
X178022621Y-101112281D01*
X178108903Y-101112454D01*
G37*
G36*
X178129924Y-87876011D02*
G01*
X178225668Y-87878931D01*
X178292792Y-87883278D01*
X178321183Y-87888599D01*
X178326671Y-87905969D01*
X178321787Y-87952020D01*
X178316466Y-87967929D01*
X178300524Y-87985819D01*
X178266782Y-87994710D01*
X178204923Y-87996565D01*
X178104632Y-87993346D01*
X178069041Y-87992056D01*
X177983129Y-87990721D01*
X177923586Y-87992467D01*
X177901613Y-87997088D01*
X177908174Y-88004064D01*
X177947359Y-88032915D01*
X178013933Y-88077449D01*
X178098722Y-88131415D01*
X178169172Y-88176248D01*
X178250971Y-88233758D01*
X178300466Y-88279605D01*
X178324403Y-88320570D01*
X178329527Y-88363434D01*
X178323168Y-88377383D01*
X178297230Y-88389285D01*
X178244385Y-88397471D01*
X178157322Y-88402999D01*
X178028727Y-88406926D01*
X177729544Y-88413784D01*
X177729544Y-88349047D01*
X177729544Y-88284310D01*
X177950694Y-88295907D01*
X178003535Y-88298186D01*
X178085849Y-88299253D01*
X178138593Y-88296400D01*
X178152185Y-88289910D01*
X178138750Y-88279496D01*
X178090723Y-88244734D01*
X178018268Y-88193504D01*
X177931035Y-88132670D01*
X177925852Y-88129073D01*
X177830197Y-88059886D01*
X177769936Y-88008593D01*
X177738557Y-87968771D01*
X177729544Y-87933997D01*
X177729544Y-87874973D01*
X178018551Y-87874973D01*
X178129924Y-87876011D01*
G37*
G36*
X178142489Y-96927419D02*
G01*
X178233398Y-96978817D01*
X178299266Y-97062888D01*
X178324698Y-97132673D01*
X178337908Y-97264265D01*
X178313309Y-97396328D01*
X178312084Y-97399831D01*
X178294367Y-97441307D01*
X178269418Y-97463208D01*
X178223368Y-97471774D01*
X178142348Y-97473242D01*
X177998198Y-97473242D01*
X177998198Y-97351127D01*
X177998407Y-97322882D01*
X178003134Y-97262730D01*
X178017746Y-97235441D01*
X178047044Y-97229011D01*
X178061167Y-97229983D01*
X178088578Y-97249550D01*
X178095891Y-97303903D01*
X178098269Y-97345931D01*
X178116036Y-97370878D01*
X178163054Y-97371066D01*
X178171333Y-97370031D01*
X178210475Y-97357850D01*
X178229343Y-97325970D01*
X178237714Y-97259821D01*
X178238898Y-97205868D01*
X178223840Y-97146151D01*
X178180905Y-97091998D01*
X178141794Y-97057720D01*
X178090713Y-97037593D01*
X178018869Y-97040802D01*
X177923967Y-97063338D01*
X177863614Y-97106721D01*
X177834833Y-97178698D01*
X177831414Y-97287438D01*
X177833063Y-97332674D01*
X177828134Y-97410681D01*
X177810573Y-97442142D01*
X177784467Y-97440585D01*
X177756365Y-97405420D01*
X177739357Y-97341723D01*
X177733941Y-97260788D01*
X177740619Y-97173908D01*
X177759887Y-97092377D01*
X177792246Y-97027488D01*
X177839575Y-96977654D01*
X177933572Y-96926000D01*
X178038545Y-96909535D01*
X178142489Y-96927419D01*
G37*
G36*
X178308803Y-100198104D02*
G01*
X178315698Y-100242872D01*
X178315632Y-100247156D01*
X178298121Y-100295460D01*
X178242429Y-100327082D01*
X178215744Y-100337293D01*
X178184636Y-100359803D01*
X178171722Y-100399846D01*
X178169160Y-100473047D01*
X178169651Y-100513870D01*
X178176663Y-100569756D01*
X178198292Y-100600993D01*
X178242429Y-100623819D01*
X178298202Y-100660006D01*
X178315698Y-100712263D01*
X178311085Y-100749522D01*
X178296007Y-100770357D01*
X178268705Y-100762432D01*
X178205159Y-100739629D01*
X178115368Y-100705538D01*
X178009036Y-100663763D01*
X177910611Y-100624204D01*
X177829429Y-100589395D01*
X177779600Y-100562705D01*
X177753477Y-100538824D01*
X177743412Y-100512446D01*
X177741756Y-100478262D01*
X177742000Y-100471405D01*
X177815025Y-100471405D01*
X177888294Y-100500543D01*
X177954887Y-100523590D01*
X178028727Y-100543168D01*
X178068983Y-100548419D01*
X178091462Y-100533124D01*
X178095891Y-100481775D01*
X178095890Y-100481251D01*
X178090468Y-100426037D01*
X178077573Y-100397840D01*
X178061684Y-100397483D01*
X178009172Y-100408400D01*
X177937141Y-100430096D01*
X177815025Y-100471405D01*
X177742000Y-100471405D01*
X177742808Y-100448731D01*
X177751099Y-100421469D01*
X177774265Y-100397462D01*
X177819939Y-100371390D01*
X177895750Y-100337936D01*
X178009331Y-100291780D01*
X178061684Y-100271029D01*
X178112120Y-100251038D01*
X178202616Y-100216324D01*
X178267233Y-100192838D01*
X178296302Y-100184204D01*
X178308803Y-100198104D01*
G37*
G36*
X177928145Y-92857281D02*
G01*
X178015413Y-92857281D01*
X178129587Y-92858617D01*
X178226451Y-92862294D01*
X178294886Y-92867745D01*
X178324684Y-92874407D01*
X178331521Y-92885925D01*
X178334640Y-92929359D01*
X178330219Y-92940376D01*
X178292091Y-92963090D01*
X178211681Y-92974628D01*
X178182754Y-92976724D01*
X178126086Y-92985662D01*
X178101337Y-93004320D01*
X178095891Y-93039800D01*
X178111747Y-93089958D01*
X178175266Y-93147920D01*
X178185800Y-93154614D01*
X178245579Y-93192828D01*
X178286927Y-93219603D01*
X178289774Y-93221709D01*
X178312424Y-93256961D01*
X178325909Y-93306654D01*
X178326915Y-93350988D01*
X178312128Y-93370165D01*
X178297115Y-93364938D01*
X178250036Y-93337855D01*
X178187670Y-93295420D01*
X178142283Y-93263283D01*
X178101329Y-93240039D01*
X178079223Y-93241903D01*
X178064226Y-93266084D01*
X178048215Y-93293929D01*
X177987777Y-93344029D01*
X177912496Y-93360952D01*
X177837910Y-93343390D01*
X177779559Y-93290037D01*
X177777212Y-93285906D01*
X177759385Y-93230562D01*
X177744077Y-93145224D01*
X177734382Y-93046559D01*
X177730438Y-92979396D01*
X177827237Y-92979396D01*
X177827237Y-93088440D01*
X177833212Y-93151896D01*
X177860075Y-93213448D01*
X177903957Y-93236337D01*
X177959810Y-93215718D01*
X177969013Y-93206845D01*
X177997170Y-93154079D01*
X178015246Y-93082337D01*
X178029053Y-92979396D01*
X177928145Y-92979396D01*
X177827237Y-92979396D01*
X177730438Y-92979396D01*
X177723268Y-92857281D01*
X177928145Y-92857281D01*
G37*
G36*
X178320201Y-91080354D02*
G01*
X178340121Y-91109286D01*
X178322165Y-91157792D01*
X178274378Y-91202198D01*
X178216261Y-91220934D01*
X178203231Y-91221812D01*
X178181497Y-91235386D01*
X178171543Y-91274495D01*
X178169160Y-91350738D01*
X178170317Y-91414710D01*
X178179470Y-91464259D01*
X178204844Y-91494334D01*
X178254641Y-91521304D01*
X178268224Y-91528496D01*
X178315342Y-91567610D01*
X178340972Y-91610950D01*
X178340300Y-91646076D01*
X178308513Y-91660550D01*
X178277186Y-91652706D01*
X178209752Y-91629726D01*
X178117062Y-91595257D01*
X178009331Y-91552974D01*
X177907419Y-91511679D01*
X177827441Y-91477030D01*
X177778513Y-91450399D01*
X177753008Y-91426431D01*
X177743298Y-91399768D01*
X177741756Y-91365054D01*
X177741834Y-91362087D01*
X177815025Y-91362087D01*
X177888294Y-91390980D01*
X177954823Y-91413843D01*
X178028727Y-91433360D01*
X178037988Y-91435173D01*
X178077299Y-91437413D01*
X178093028Y-91415323D01*
X178095891Y-91356668D01*
X178095932Y-91342508D01*
X178094401Y-91302220D01*
X178083271Y-91282164D01*
X178053364Y-91281165D01*
X177995502Y-91298047D01*
X177900506Y-91331634D01*
X177815025Y-91362087D01*
X177741834Y-91362087D01*
X177742466Y-91337955D01*
X177749614Y-91309284D01*
X177770981Y-91284816D01*
X177814347Y-91258957D01*
X177887493Y-91226115D01*
X177998198Y-91180695D01*
X178053364Y-91158925D01*
X178089379Y-91144712D01*
X178185365Y-91109192D01*
X178258375Y-91084842D01*
X178297381Y-91075537D01*
X178320201Y-91080354D01*
G37*
G36*
X178339413Y-93676948D02*
G01*
X178336740Y-93723695D01*
X178299620Y-93768272D01*
X178236079Y-93798280D01*
X178208049Y-93806725D01*
X178182090Y-93826563D01*
X178171304Y-93867084D01*
X178169160Y-93942348D01*
X178170017Y-93997425D01*
X178178076Y-94049783D01*
X178201103Y-94080135D01*
X178246792Y-94104556D01*
X178270258Y-94117110D01*
X178316368Y-94159310D01*
X178333538Y-94203891D01*
X178314987Y-94237624D01*
X178314077Y-94238007D01*
X178281191Y-94232802D01*
X178213403Y-94212163D01*
X178120072Y-94179184D01*
X178010556Y-94136960D01*
X178002609Y-94133779D01*
X177887538Y-94087256D01*
X177810232Y-94053570D01*
X177763474Y-94027809D01*
X177740048Y-94005063D01*
X177732740Y-93980421D01*
X177734311Y-93949389D01*
X177820375Y-93949389D01*
X177938061Y-93989489D01*
X177980570Y-94003538D01*
X178042761Y-94022255D01*
X178075818Y-94029588D01*
X178078443Y-94028855D01*
X178090846Y-94000622D01*
X178095891Y-93944107D01*
X178095734Y-93932941D01*
X178089684Y-93880120D01*
X178077573Y-93858647D01*
X178062403Y-93861855D01*
X178010794Y-93878303D01*
X177939816Y-93904028D01*
X177820375Y-93949389D01*
X177734311Y-93949389D01*
X177734332Y-93948973D01*
X177738416Y-93922533D01*
X177750742Y-93895833D01*
X177778231Y-93871096D01*
X177828480Y-93843421D01*
X177909084Y-93807902D01*
X178027638Y-93759638D01*
X178040865Y-93754344D01*
X178077573Y-93740176D01*
X178148455Y-93712819D01*
X178237986Y-93680894D01*
X178300444Y-93661629D01*
X178326821Y-93658083D01*
X178339413Y-93676948D01*
G37*
G36*
X178198171Y-85973930D02*
G01*
X178272595Y-85976540D01*
X178309828Y-85981238D01*
X178326448Y-85994546D01*
X178335579Y-86037062D01*
X178335093Y-86039352D01*
X178321866Y-86060419D01*
X178287856Y-86074639D01*
X178223710Y-86084399D01*
X178120072Y-86092088D01*
X177912718Y-86104300D01*
X178089785Y-86183579D01*
X178138043Y-86205881D01*
X178223738Y-86253340D01*
X178262747Y-86293952D01*
X178255303Y-86332263D01*
X178201641Y-86372817D01*
X178101996Y-86420160D01*
X178092800Y-86424092D01*
X178011385Y-86459915D01*
X177949543Y-86488857D01*
X177920033Y-86504970D01*
X177920316Y-86507475D01*
X177950668Y-86511982D01*
X178015854Y-86513274D01*
X178105793Y-86511025D01*
X178124799Y-86510259D01*
X178220043Y-86508203D01*
X178278326Y-86512092D01*
X178309763Y-86523438D01*
X178324470Y-86543757D01*
X178330566Y-86567655D01*
X178326548Y-86607177D01*
X178298417Y-86615770D01*
X178231421Y-86622852D01*
X178135654Y-86627638D01*
X178021180Y-86629396D01*
X177729544Y-86629396D01*
X177729544Y-86559397D01*
X177729765Y-86548256D01*
X177737115Y-86513444D01*
X177761827Y-86484606D01*
X177813247Y-86453745D01*
X177900721Y-86412858D01*
X177916395Y-86405895D01*
X177999323Y-86370583D01*
X178063491Y-86345720D01*
X178096106Y-86336319D01*
X178097715Y-86336310D01*
X178122931Y-86327892D01*
X178105507Y-86305377D01*
X178048622Y-86271217D01*
X177955458Y-86227866D01*
X177953206Y-86226903D01*
X177849561Y-86181101D01*
X177783594Y-86146430D01*
X177747571Y-86116503D01*
X177733756Y-86084933D01*
X177734415Y-86045333D01*
X177737420Y-86024200D01*
X177746593Y-86003517D01*
X177769563Y-85990515D01*
X177815089Y-85982954D01*
X177891929Y-85978597D01*
X178008840Y-85975206D01*
X178098173Y-85973642D01*
X178198171Y-85973930D01*
G37*
G36*
X172128307Y-102666829D02*
G01*
X172155002Y-102717681D01*
X172185409Y-102791367D01*
X172207723Y-102849102D01*
X172312685Y-103080751D01*
X172438787Y-103308890D01*
X172578844Y-103522335D01*
X172725670Y-103709899D01*
X172872082Y-103860398D01*
X173002828Y-103971457D01*
X173324568Y-104201466D01*
X173664405Y-104386123D01*
X174022106Y-104525348D01*
X174397440Y-104619059D01*
X174790177Y-104667177D01*
X175200084Y-104669621D01*
X175546637Y-104641136D01*
X175943580Y-104575041D01*
X176322195Y-104471751D01*
X176692724Y-104328368D01*
X177065410Y-104141996D01*
X177243872Y-104043187D01*
X177235322Y-106283935D01*
X177234623Y-106466500D01*
X177233206Y-106826401D01*
X177231846Y-107142144D01*
X177230461Y-107416932D01*
X177228969Y-107653970D01*
X177227288Y-107856462D01*
X177225334Y-108027610D01*
X177223026Y-108170620D01*
X177220281Y-108288694D01*
X177217017Y-108385036D01*
X177213153Y-108462851D01*
X177208604Y-108525342D01*
X177203290Y-108575712D01*
X177197127Y-108617167D01*
X177190034Y-108652908D01*
X177181928Y-108686141D01*
X177172727Y-108720069D01*
X177170621Y-108727619D01*
X177118110Y-108888074D01*
X177054267Y-109042234D01*
X176985489Y-109176129D01*
X176918178Y-109275786D01*
X176862525Y-109343042D01*
X176617473Y-109198950D01*
X176582967Y-109178332D01*
X176490710Y-109121369D01*
X176378582Y-109050379D01*
X176253367Y-108969837D01*
X176121850Y-108884221D01*
X175990814Y-108798006D01*
X175867045Y-108715669D01*
X175757326Y-108641685D01*
X175668442Y-108580533D01*
X175607176Y-108536687D01*
X175580314Y-108514624D01*
X175556128Y-108493597D01*
X175503407Y-108452971D01*
X175433792Y-108401763D01*
X175424720Y-108395191D01*
X175289064Y-108291991D01*
X175129439Y-108163158D01*
X174955607Y-108017031D01*
X174777327Y-107861948D01*
X174604360Y-107706248D01*
X174446467Y-107558268D01*
X174363993Y-107478174D01*
X173932771Y-107028479D01*
X173544463Y-106568548D01*
X173199916Y-106099823D01*
X172899978Y-105623746D01*
X172645496Y-105141758D01*
X172437318Y-104655300D01*
X172276290Y-104165814D01*
X172163261Y-103674741D01*
X172161983Y-103667640D01*
X172131230Y-103479335D01*
X172106922Y-103296279D01*
X172089359Y-103124593D01*
X172078841Y-102970397D01*
X172075667Y-102839813D01*
X172080136Y-102738961D01*
X172092547Y-102673961D01*
X172113200Y-102650934D01*
X172128307Y-102666829D01*
G37*
G36*
X177241083Y-83979306D02*
G01*
X177241083Y-85017100D01*
X175733326Y-85023392D01*
X174225569Y-85029684D01*
X174488722Y-85212857D01*
X174586950Y-85281449D01*
X174725576Y-85378769D01*
X174861830Y-85474910D01*
X174976815Y-85556565D01*
X174982481Y-85560608D01*
X175122351Y-85660127D01*
X175293412Y-85781404D01*
X175487220Y-85918486D01*
X175695333Y-86065421D01*
X175909305Y-86216256D01*
X176120695Y-86365040D01*
X176321058Y-86505821D01*
X176501950Y-86632644D01*
X176654929Y-86739560D01*
X176656666Y-86740771D01*
X176776455Y-86825029D01*
X176882463Y-86900939D01*
X176968078Y-86963659D01*
X177026691Y-87008348D01*
X177051692Y-87030163D01*
X177054374Y-87045948D01*
X177057945Y-87106525D01*
X177061157Y-87207293D01*
X177063931Y-87343171D01*
X177066187Y-87509079D01*
X177067846Y-87699933D01*
X177068827Y-87910653D01*
X177069050Y-88136157D01*
X177068203Y-89215514D01*
X177000692Y-89271830D01*
X176989052Y-89280794D01*
X176938201Y-89317871D01*
X176852598Y-89379169D01*
X176735713Y-89462238D01*
X176591016Y-89564629D01*
X176421978Y-89683890D01*
X176232069Y-89817572D01*
X176024758Y-89963225D01*
X175803516Y-90118400D01*
X175571813Y-90280646D01*
X174210445Y-91233146D01*
X175725764Y-91239437D01*
X177241083Y-91245727D01*
X177241083Y-92283523D01*
X177241083Y-93321319D01*
X174725506Y-93321319D01*
X172209929Y-93321319D01*
X172209929Y-92080448D01*
X172209929Y-90839577D01*
X173168535Y-90171078D01*
X173196028Y-90151905D01*
X173451187Y-89973950D01*
X173672526Y-89819544D01*
X173865737Y-89684711D01*
X174036511Y-89565471D01*
X174190539Y-89457847D01*
X174333513Y-89357861D01*
X174471122Y-89261534D01*
X174609059Y-89164890D01*
X174753014Y-89063949D01*
X174908679Y-88954734D01*
X175177333Y-88766205D01*
X175183832Y-88131250D01*
X175190332Y-87496296D01*
X174195717Y-86800298D01*
X173991880Y-86657677D01*
X173793245Y-86518730D01*
X173605003Y-86387085D01*
X173432090Y-86266192D01*
X173279445Y-86159505D01*
X173152004Y-86070474D01*
X173054706Y-86002550D01*
X172992487Y-85959186D01*
X172890986Y-85888436D01*
X172763904Y-85799631D01*
X172629147Y-85705291D01*
X172503006Y-85616810D01*
X172222141Y-85419548D01*
X172215811Y-84180530D01*
X172209481Y-82941511D01*
X174725282Y-82941511D01*
X177241083Y-82941511D01*
X177241083Y-83979306D01*
G37*
G36*
X174090506Y-93809781D02*
G01*
X174724907Y-93809781D01*
X177241083Y-93809781D01*
X177241083Y-94847761D01*
X177241083Y-95885742D01*
X176642718Y-95885742D01*
X176044352Y-95885742D01*
X176046053Y-97381656D01*
X176047753Y-98877569D01*
X176441262Y-99219492D01*
X176447336Y-99224770D01*
X176580827Y-99341009D01*
X176716378Y-99459439D01*
X176844242Y-99571517D01*
X176954673Y-99668702D01*
X177037927Y-99742452D01*
X177241083Y-99923488D01*
X177240975Y-101122355D01*
X177240867Y-102321223D01*
X176466346Y-101545790D01*
X176341395Y-101420900D01*
X176188929Y-101269098D01*
X176049711Y-101131144D01*
X175927273Y-101010502D01*
X175825147Y-100910636D01*
X175746864Y-100835014D01*
X175695958Y-100787099D01*
X175675960Y-100770357D01*
X175664297Y-100782333D01*
X175638395Y-100828736D01*
X175606996Y-100898127D01*
X175523100Y-101071097D01*
X175385056Y-101287361D01*
X175221263Y-101487268D01*
X175040822Y-101659995D01*
X174852836Y-101794721D01*
X174706632Y-101875465D01*
X174570755Y-101934123D01*
X174433142Y-101972989D01*
X174278242Y-101996430D01*
X174090506Y-102008813D01*
X173900499Y-102011298D01*
X173723045Y-101998927D01*
X173565391Y-101967889D01*
X173413243Y-101915274D01*
X173252309Y-101838172D01*
X173142771Y-101774657D01*
X172913697Y-101601364D01*
X172711829Y-101387988D01*
X172537651Y-101135184D01*
X172391647Y-100843608D01*
X172274301Y-100513915D01*
X172269008Y-100495632D01*
X172262337Y-100470204D01*
X172256345Y-100442159D01*
X172250988Y-100408930D01*
X172246223Y-100367947D01*
X172242006Y-100316643D01*
X172238294Y-100252448D01*
X172235044Y-100172796D01*
X172232213Y-100075117D01*
X172229757Y-99956843D01*
X172227632Y-99815406D01*
X172225796Y-99648238D01*
X172224205Y-99452770D01*
X172222816Y-99226434D01*
X172221585Y-98966662D01*
X172220469Y-98670885D01*
X172219425Y-98336536D01*
X172218409Y-97961045D01*
X172217379Y-97541845D01*
X172216289Y-97076367D01*
X172213534Y-95885742D01*
X173577621Y-95885742D01*
X173577621Y-97760374D01*
X173577656Y-97881018D01*
X173578175Y-98226736D01*
X173579294Y-98542595D01*
X173580983Y-98826221D01*
X173583214Y-99075242D01*
X173585957Y-99287284D01*
X173589185Y-99459974D01*
X173592867Y-99590939D01*
X173596976Y-99677806D01*
X173601481Y-99718201D01*
X173648652Y-99826205D01*
X173733074Y-99937325D01*
X173839897Y-100027818D01*
X173958180Y-100088653D01*
X174076984Y-100110798D01*
X174219758Y-100090477D01*
X174359045Y-100028647D01*
X174475105Y-99931639D01*
X174557842Y-99805855D01*
X174560761Y-99799212D01*
X174568574Y-99777925D01*
X174575347Y-99751295D01*
X174581156Y-99715975D01*
X174586075Y-99668618D01*
X174590181Y-99605878D01*
X174593547Y-99524409D01*
X174596248Y-99420864D01*
X174598360Y-99291898D01*
X174599958Y-99134164D01*
X174601116Y-98944315D01*
X174601910Y-98719005D01*
X174602414Y-98454888D01*
X174602704Y-98148618D01*
X174602854Y-97796848D01*
X174603391Y-95885742D01*
X174090506Y-95885742D01*
X173577621Y-95885742D01*
X172213534Y-95885742D01*
X172208731Y-93809781D01*
X174090506Y-93809781D01*
G37*
G36*
X171697612Y-85546204D02*
G01*
X171531650Y-85699558D01*
X171229227Y-86019720D01*
X170973685Y-86351470D01*
X170764434Y-86695723D01*
X170600879Y-87053394D01*
X170482430Y-87425400D01*
X170419142Y-87675327D01*
X170522781Y-87793067D01*
X170541881Y-87815232D01*
X170676319Y-88001082D01*
X170797063Y-88224422D01*
X170904656Y-88486958D01*
X170999641Y-88790393D01*
X171082562Y-89136433D01*
X171153961Y-89526783D01*
X171214383Y-89963146D01*
X171225203Y-90056563D01*
X171236295Y-90163821D01*
X171245300Y-90269787D01*
X171252437Y-90380727D01*
X171257926Y-90502909D01*
X171261988Y-90642600D01*
X171264841Y-90806068D01*
X171266706Y-90999579D01*
X171267803Y-91229400D01*
X171268351Y-91501800D01*
X171268391Y-91580904D01*
X171267440Y-91894537D01*
X171264758Y-92181989D01*
X171260436Y-92438731D01*
X171254566Y-92660232D01*
X171247239Y-92841964D01*
X171238546Y-92979396D01*
X171198702Y-93440457D01*
X171151109Y-93929340D01*
X171100064Y-94386046D01*
X171044241Y-94819460D01*
X170982318Y-95238467D01*
X170912969Y-95651954D01*
X170834870Y-96068806D01*
X170746698Y-96497908D01*
X170647129Y-96948146D01*
X170633455Y-97008470D01*
X170575201Y-97272019D01*
X170515849Y-97549989D01*
X170458605Y-97826922D01*
X170406680Y-98087358D01*
X170363280Y-98315838D01*
X170345489Y-98415733D01*
X170324341Y-98551015D01*
X170309908Y-98675607D01*
X170300937Y-98804386D01*
X170296176Y-98952229D01*
X170294370Y-99134011D01*
X170295177Y-99297157D01*
X170301459Y-99473294D01*
X170315140Y-99613732D01*
X170337823Y-99725804D01*
X170371108Y-99816843D01*
X170416597Y-99894180D01*
X170475891Y-99965147D01*
X170562441Y-100039598D01*
X170683940Y-100097255D01*
X170810984Y-100110466D01*
X170940500Y-100081024D01*
X171069414Y-100010725D01*
X171194653Y-99901365D01*
X171313141Y-99754737D01*
X171421806Y-99572637D01*
X171517573Y-99356861D01*
X171597732Y-99146223D01*
X171598542Y-99652511D01*
X171599352Y-100158799D01*
X171505114Y-100397415D01*
X171497804Y-100416011D01*
X171391264Y-100711795D01*
X171303564Y-101009796D01*
X171230644Y-101325404D01*
X171168445Y-101674011D01*
X171158284Y-101748223D01*
X171141861Y-101924326D01*
X171130467Y-102129243D01*
X171124104Y-102351916D01*
X171122776Y-102581289D01*
X171126488Y-102806306D01*
X171135242Y-103015909D01*
X171149043Y-103199041D01*
X171167893Y-103344647D01*
X171182198Y-103422259D01*
X171274892Y-103804151D01*
X171408766Y-104210604D01*
X171583443Y-104640812D01*
X171798546Y-105093967D01*
X172053697Y-105569263D01*
X172348519Y-106065893D01*
X172682634Y-106583050D01*
X172792001Y-106744688D01*
X173081712Y-107158034D01*
X173367856Y-107542849D01*
X173660306Y-107911735D01*
X173968935Y-108277295D01*
X174303616Y-108652131D01*
X174504515Y-108871733D01*
X174293745Y-108927413D01*
X174265308Y-108935048D01*
X174002541Y-109018435D01*
X173771603Y-109115707D01*
X173575876Y-109224714D01*
X173418744Y-109343308D01*
X173303590Y-109469340D01*
X173233798Y-109600660D01*
X173215173Y-109667858D01*
X173199149Y-109834545D01*
X173218477Y-110005653D01*
X173271876Y-110162283D01*
X173278142Y-110174855D01*
X173397980Y-110358116D01*
X173560452Y-110522543D01*
X173762779Y-110666911D01*
X174002184Y-110789997D01*
X174275889Y-110890576D01*
X174581116Y-110967425D01*
X174915087Y-111019318D01*
X175275025Y-111045033D01*
X175376415Y-111047476D01*
X175722200Y-111039954D01*
X176039267Y-111005072D01*
X176338157Y-110940718D01*
X176629415Y-110844785D01*
X176923583Y-110715161D01*
X176938032Y-110708053D01*
X177043751Y-110656090D01*
X177132439Y-110612572D01*
X177195167Y-110581876D01*
X177223004Y-110568381D01*
X177223102Y-110568351D01*
X177226677Y-110591424D01*
X177229763Y-110658529D01*
X177232309Y-110764976D01*
X177234266Y-110906073D01*
X177235585Y-111077130D01*
X177236216Y-111273456D01*
X177236109Y-111490361D01*
X177235215Y-111723153D01*
X177228871Y-112886524D01*
X175305554Y-112884802D01*
X173382237Y-112883080D01*
X173382237Y-113469796D01*
X173382237Y-114056511D01*
X172796083Y-114056511D01*
X172209929Y-114056511D01*
X172209929Y-110814270D01*
X172209929Y-107572028D01*
X172130554Y-107461211D01*
X172118163Y-107444248D01*
X172057581Y-107365811D01*
X171981786Y-107272264D01*
X171904247Y-107180328D01*
X171902071Y-107177809D01*
X171700115Y-106937798D01*
X171483620Y-106669667D01*
X171262292Y-106386055D01*
X171045840Y-106099600D01*
X170843971Y-105822941D01*
X170666392Y-105568716D01*
X170369365Y-105113623D01*
X170052783Y-104578146D01*
X169781103Y-104055386D01*
X169553700Y-103543379D01*
X169369952Y-103040162D01*
X169229235Y-102543770D01*
X169130924Y-102052241D01*
X169074396Y-101563609D01*
X169059028Y-101075912D01*
X169084195Y-100587184D01*
X169086947Y-100558291D01*
X169111447Y-100351435D01*
X169145991Y-100132026D01*
X169191602Y-99895969D01*
X169249302Y-99639168D01*
X169320113Y-99357527D01*
X169405059Y-99046950D01*
X169505161Y-98703341D01*
X169621443Y-98322605D01*
X169754927Y-97900646D01*
X169852698Y-97594382D01*
X169945769Y-97298626D01*
X170026692Y-97035661D01*
X170097414Y-96798497D01*
X170159883Y-96580147D01*
X170216046Y-96373623D01*
X170267849Y-96171936D01*
X170317240Y-95968097D01*
X170366167Y-95755119D01*
X170416576Y-95526014D01*
X170445583Y-95387233D01*
X170506126Y-95066502D01*
X170562325Y-94727215D01*
X170613039Y-94378776D01*
X170657124Y-94030587D01*
X170693438Y-93692051D01*
X170720840Y-93372568D01*
X170738187Y-93081543D01*
X170744336Y-92828378D01*
X170740133Y-92690984D01*
X170719029Y-92465026D01*
X170682392Y-92223639D01*
X170632729Y-91977536D01*
X170572548Y-91737428D01*
X170504355Y-91514028D01*
X170430656Y-91318048D01*
X170353959Y-91160199D01*
X170296929Y-91069859D01*
X170195596Y-90945458D01*
X170089927Y-90855087D01*
X169987060Y-90805643D01*
X169985544Y-90805236D01*
X169914621Y-90791586D01*
X169855582Y-90798536D01*
X169782015Y-90829109D01*
X169676229Y-90902043D01*
X169566619Y-91023159D01*
X169460483Y-91186728D01*
X169359931Y-91389476D01*
X169267069Y-91628132D01*
X169184116Y-91868146D01*
X169182792Y-91385079D01*
X169181468Y-90902013D01*
X169316415Y-90624491D01*
X169404453Y-90459570D01*
X169517114Y-90290553D01*
X169632229Y-90161165D01*
X169747402Y-90073579D01*
X169860241Y-90029969D01*
X169968350Y-90032509D01*
X170044186Y-90061052D01*
X170162713Y-90144584D01*
X170275522Y-90272077D01*
X170380154Y-90440543D01*
X170474149Y-90646992D01*
X170480882Y-90664395D01*
X170525888Y-90790043D01*
X170569799Y-90926746D01*
X170609454Y-91063127D01*
X170641692Y-91187808D01*
X170663353Y-91289412D01*
X170671275Y-91356564D01*
X170674047Y-91378346D01*
X170687028Y-91384284D01*
X170694990Y-91348936D01*
X170692406Y-91273127D01*
X170680434Y-91164278D01*
X170660462Y-91029585D01*
X170633882Y-90876243D01*
X170602082Y-90711450D01*
X170566452Y-90542400D01*
X170528382Y-90376290D01*
X170489262Y-90220315D01*
X170450481Y-90081672D01*
X170413429Y-89967557D01*
X170366431Y-89843816D01*
X170271770Y-89636327D01*
X170173828Y-89476576D01*
X170071892Y-89363860D01*
X169965247Y-89297478D01*
X169853176Y-89276727D01*
X169734967Y-89300905D01*
X169625929Y-89360038D01*
X169515736Y-89461494D01*
X169411792Y-89604355D01*
X169312319Y-89791099D01*
X169215538Y-90024204D01*
X169207143Y-90042703D01*
X169199473Y-90046103D01*
X169193590Y-90026536D01*
X169189252Y-89979691D01*
X169186219Y-89901253D01*
X169184250Y-89786910D01*
X169183103Y-89632349D01*
X169182539Y-89433255D01*
X169181468Y-88756826D01*
X169265820Y-88431909D01*
X169270205Y-88415096D01*
X169376645Y-88046084D01*
X169500333Y-87682017D01*
X169637599Y-87331672D01*
X169784772Y-87003828D01*
X169938184Y-86707262D01*
X170094163Y-86450752D01*
X170279378Y-86207850D01*
X170514080Y-85973819D01*
X170776906Y-85778883D01*
X171065369Y-85624592D01*
X171376981Y-85512496D01*
X171709256Y-85444146D01*
X171831371Y-85427724D01*
X171697612Y-85546204D01*
G37*
D11*
%TO.C,C50*%
X222590000Y-71811252D02*
X222590000Y-70388748D01*
X224410000Y-71811252D02*
X224410000Y-70388748D01*
%TO.C,R52*%
X235272936Y-139890000D02*
X236727064Y-139890000D01*
X235272936Y-141710000D02*
X236727064Y-141710000D01*
%TO.C,R9*%
X232490000Y-112927064D02*
X232490000Y-111472936D01*
X234310000Y-112927064D02*
X234310000Y-111472936D01*
%TD*%
%LPC*%
D13*
%TO.C,Q2*%
X218100000Y-83000000D03*
D14*
X218100000Y-85760000D03*
X218100000Y-88300000D03*
%TD*%
D15*
%TO.C,J3*%
X155500000Y-61800000D03*
D16*
X155500000Y-66880000D03*
%TD*%
D17*
%TO.C,J11*%
X166550000Y-123960000D03*
D18*
X166550000Y-121420000D03*
X166550000Y-118880000D03*
X166550000Y-116340000D03*
X166550000Y-113800000D03*
X166550000Y-111260000D03*
X166550000Y-108720000D03*
X166550000Y-106180000D03*
X166550000Y-103640000D03*
X166550000Y-101100000D03*
X166550000Y-98560000D03*
X166550000Y-96020000D03*
X166550000Y-93480000D03*
X166550000Y-90940000D03*
X166550000Y-88400000D03*
X166550000Y-85860000D03*
X166550000Y-83320000D03*
X166550000Y-80780000D03*
X166550000Y-78240000D03*
X166550000Y-75700000D03*
%TD*%
D19*
%TO.C,C5*%
X96400000Y-69400000D03*
D20*
X96400000Y-64400000D03*
%TD*%
D21*
%TO.C,SW5*%
X74700000Y-86600000D03*
X74700000Y-78400000D03*
D22*
X74700000Y-84500000D03*
D23*
X74700000Y-82500000D03*
X74700000Y-80500000D03*
%TD*%
D24*
%TO.C,C47*%
X205850000Y-139500000D03*
X200850000Y-139500000D03*
%TD*%
D13*
%TO.C,D18*%
X206800000Y-108370000D03*
D14*
X206800000Y-100750000D03*
%TD*%
D24*
%TO.C,C24*%
X119300000Y-126600000D03*
X119300000Y-121600000D03*
%TD*%
%TO.C,C25*%
X119000000Y-130550000D03*
X119000000Y-135550000D03*
%TD*%
D17*
%TO.C,J4*%
X127940000Y-143970000D03*
D18*
X125400000Y-143970000D03*
X122860000Y-143970000D03*
%TD*%
D25*
%TO.C,C17*%
X237578546Y-66767767D03*
D26*
X241114080Y-63232233D03*
%TD*%
D13*
%TO.C,D16*%
X207600000Y-83700000D03*
D14*
X207600000Y-76080000D03*
%TD*%
D27*
%TO.C,H4*%
X153125000Y-145000000D03*
X153674175Y-143674175D03*
X153674175Y-146325825D03*
X155000000Y-143125000D03*
D28*
X155000000Y-145000000D03*
D27*
X155000000Y-146875000D03*
X156325825Y-143674175D03*
X156325825Y-146325825D03*
X156875000Y-145000000D03*
%TD*%
D17*
%TO.C,U3*%
X107458000Y-59018000D03*
D18*
X107458000Y-61558000D03*
D17*
X107458000Y-69686000D03*
D18*
X107458000Y-72226000D03*
X126000000Y-72226000D03*
D17*
X126000000Y-69686000D03*
D18*
X126000000Y-61558000D03*
D17*
X126000000Y-59018000D03*
%TD*%
D29*
%TO.C,TP31*%
X224800000Y-83000000D03*
%TD*%
D30*
%TO.C,R38*%
X122310000Y-131960000D03*
D31*
X122310000Y-139580000D03*
%TD*%
D27*
%TO.C,H1*%
X133125000Y-55000000D03*
X133674175Y-53674175D03*
X133674175Y-56325825D03*
X135000000Y-53125000D03*
D28*
X135000000Y-55000000D03*
D27*
X135000000Y-56875000D03*
X136325825Y-53674175D03*
X136325825Y-56325825D03*
X136875000Y-55000000D03*
%TD*%
D29*
%TO.C,V*%
X234300000Y-105300000D03*
%TD*%
D17*
%TO.C,J2*%
X181800000Y-123940000D03*
D18*
X181800000Y-121400000D03*
X181800000Y-118860000D03*
X181800000Y-116320000D03*
X181800000Y-113780000D03*
X181800000Y-111240000D03*
X181800000Y-108700000D03*
X181800000Y-106160000D03*
X181800000Y-103620000D03*
X181800000Y-101080000D03*
X181800000Y-98540000D03*
X181800000Y-96000000D03*
X181800000Y-93460000D03*
X181800000Y-90920000D03*
X181800000Y-88380000D03*
X181800000Y-85840000D03*
X181800000Y-83300000D03*
X181800000Y-80760000D03*
X181800000Y-78220000D03*
X181800000Y-75680000D03*
%TD*%
D30*
%TO.C,R25*%
X130000000Y-65410000D03*
D31*
X130000000Y-57790000D03*
%TD*%
D13*
%TO.C,D17*%
X206800000Y-98270000D03*
D14*
X206800000Y-90650000D03*
%TD*%
D32*
%TO.C,J12*%
X84700000Y-80300000D03*
D33*
X84700000Y-82800000D03*
%TD*%
D17*
%TO.C,J9*%
X133400000Y-83600000D03*
D18*
X133400000Y-86140000D03*
X133400000Y-88680000D03*
X133400000Y-91220000D03*
X133400000Y-93760000D03*
X133400000Y-96300000D03*
X133400000Y-98840000D03*
X133400000Y-101380000D03*
X133400000Y-103920000D03*
X133400000Y-106460000D03*
X133400000Y-109000000D03*
%TD*%
D30*
%TO.C,R41*%
X122310000Y-121370000D03*
D31*
X122310000Y-128990000D03*
%TD*%
D17*
%TO.C,J10*%
X153600000Y-83600000D03*
D18*
X153600000Y-86140000D03*
X153600000Y-88680000D03*
X153600000Y-91220000D03*
X153600000Y-93760000D03*
X153600000Y-96300000D03*
X153600000Y-98840000D03*
X153600000Y-101380000D03*
X153600000Y-103920000D03*
X153600000Y-106460000D03*
X153600000Y-109000000D03*
%TD*%
D34*
%TO.C,C53*%
X241932323Y-118100000D03*
D26*
X246932323Y-118100000D03*
%TD*%
D19*
%TO.C,D1*%
X165400000Y-57720000D03*
D35*
X165400000Y-67880000D03*
%TD*%
D13*
%TO.C,D19*%
X207300000Y-121170000D03*
D14*
X207300000Y-113550000D03*
%TD*%
D24*
%TO.C,C26*%
X96950000Y-130700000D03*
X91950000Y-130700000D03*
%TD*%
D36*
%TO.C,J6*%
X78900000Y-63620000D03*
D37*
X78900000Y-68700000D03*
%TD*%
D17*
%TO.C,J1*%
X190200000Y-93400000D03*
D18*
X190200000Y-90860000D03*
X190200000Y-88320000D03*
X190200000Y-85780000D03*
X190200000Y-83240000D03*
X190200000Y-80700000D03*
%TD*%
D13*
%TO.C,Q6*%
X218700000Y-130900000D03*
D14*
X218700000Y-133760000D03*
X218700000Y-136300000D03*
%TD*%
D19*
%TO.C,C2*%
X178550000Y-58000000D03*
D20*
X178550000Y-65500000D03*
%TD*%
D17*
%TO.C,J16*%
X233800000Y-77600000D03*
%TD*%
D13*
%TO.C,D20*%
X207200000Y-132800000D03*
D14*
X207200000Y-125180000D03*
%TD*%
D30*
%TO.C,R20*%
X88990000Y-78300000D03*
D31*
X96610000Y-78300000D03*
%TD*%
D13*
%TO.C,Q1*%
X218100000Y-71000000D03*
D14*
X218100000Y-73720000D03*
X218100000Y-76260000D03*
%TD*%
D27*
%TO.C,H3*%
X153125000Y-55000000D03*
X153674175Y-53674175D03*
X153674175Y-56325825D03*
X155000000Y-53125000D03*
D28*
X155000000Y-55000000D03*
D27*
X155000000Y-56875000D03*
X156325825Y-53674175D03*
X156325825Y-56325825D03*
X156875000Y-55000000D03*
%TD*%
D24*
%TO.C,C30*%
X181000000Y-134500000D03*
X186000000Y-134500000D03*
%TD*%
D17*
%TO.C,J7*%
X74600000Y-92800000D03*
D18*
X74600000Y-95340000D03*
X74600000Y-97880000D03*
%TD*%
D13*
%TO.C,Q5*%
X218700000Y-119400000D03*
D14*
X218700000Y-122260000D03*
X218700000Y-124800000D03*
%TD*%
D27*
%TO.C,H2*%
X73125000Y-55000000D03*
X73674175Y-53674175D03*
X73674175Y-56325825D03*
X75000000Y-53125000D03*
D28*
X75000000Y-55000000D03*
D27*
X75000000Y-56875000D03*
X76325825Y-53674175D03*
X76325825Y-56325825D03*
X76875000Y-55000000D03*
%TD*%
D38*
%TO.C,C4*%
X241700000Y-84300000D03*
D24*
X246700000Y-84300000D03*
%TD*%
%TO.C,C22*%
X122300000Y-118700000D03*
X127300000Y-118700000D03*
%TD*%
D13*
%TO.C,Q4*%
X218800000Y-107900000D03*
D14*
X218800000Y-110660000D03*
X218800000Y-113200000D03*
%TD*%
D19*
%TO.C,D2*%
X86800000Y-71180000D03*
D35*
X86800000Y-61020000D03*
%TD*%
D27*
%TO.C,H5*%
X133125000Y-145000000D03*
X133674175Y-143674175D03*
X133674175Y-146325825D03*
X135000000Y-143125000D03*
D28*
X135000000Y-145000000D03*
D27*
X135000000Y-146875000D03*
X136325825Y-143674175D03*
X136325825Y-146325825D03*
X136875000Y-145000000D03*
%TD*%
D30*
%TO.C,R36*%
X128610000Y-131960000D03*
D31*
X128610000Y-139580000D03*
%TD*%
D27*
%TO.C,H6*%
X243125000Y-55000000D03*
X243674175Y-53674175D03*
X243674175Y-56325825D03*
X245000000Y-53125000D03*
D28*
X245000000Y-55000000D03*
D27*
X245000000Y-56875000D03*
X246325825Y-53674175D03*
X246325825Y-56325825D03*
X246875000Y-55000000D03*
%TD*%
%TO.C,H8*%
X73125000Y-145000000D03*
X73674175Y-143674175D03*
X73674175Y-146325825D03*
X75000000Y-143125000D03*
D28*
X75000000Y-145000000D03*
D27*
X75000000Y-146875000D03*
X76325825Y-143674175D03*
X76325825Y-146325825D03*
X76875000Y-145000000D03*
%TD*%
D30*
%TO.C,R40*%
X125460000Y-121370000D03*
D31*
X125460000Y-128990000D03*
%TD*%
D39*
%TO.C,J17*%
X237600000Y-101700000D03*
%TD*%
D30*
%TO.C,R39*%
X128610000Y-121370000D03*
D31*
X128610000Y-128990000D03*
%TD*%
D24*
%TO.C,C41*%
X181200000Y-128500000D03*
X186200000Y-128500000D03*
%TD*%
D30*
%TO.C,R37*%
X125460000Y-131960000D03*
D31*
X125460000Y-139580000D03*
%TD*%
D19*
%TO.C,C3*%
X194800000Y-59276041D03*
D20*
X194800000Y-64876041D03*
%TD*%
D29*
%TO.C,W*%
X234700000Y-129460000D03*
%TD*%
D27*
%TO.C,H7*%
X243125000Y-145000000D03*
X243674175Y-143674175D03*
X243674175Y-146325825D03*
X245000000Y-143125000D03*
D28*
X245000000Y-145000000D03*
D27*
X245000000Y-146875000D03*
X246325825Y-143674175D03*
X246325825Y-146325825D03*
X246875000Y-145000000D03*
%TD*%
D30*
%TO.C,TH2*%
X158100000Y-78540000D03*
D31*
X158100000Y-76000000D03*
%TD*%
D13*
%TO.C,Q3*%
X218800000Y-96000000D03*
D14*
X218800000Y-98840000D03*
X218800000Y-101380000D03*
%TD*%
D17*
%TO.C,J5*%
X160200000Y-91820000D03*
D18*
X160200000Y-94360000D03*
X160200000Y-96900000D03*
X160200000Y-99440000D03*
X160200000Y-101980000D03*
X160200000Y-104520000D03*
X160200000Y-107060000D03*
X160200000Y-109600000D03*
X160200000Y-112140000D03*
%TD*%
D17*
%TO.C,J15*%
X234800000Y-134660000D03*
%TD*%
D13*
%TO.C,D3*%
X204000000Y-77500000D03*
D14*
X204000000Y-69880000D03*
%TD*%
D40*
%TO.C,U5*%
X229575000Y-109395000D03*
X229575000Y-110665000D03*
X229575000Y-111935000D03*
X229575000Y-113205000D03*
X224625000Y-113205000D03*
X224625000Y-111935000D03*
X224625000Y-110665000D03*
X224625000Y-109395000D03*
%TD*%
D41*
%TO.C,R51*%
X236500000Y-110550000D03*
X236500000Y-113650000D03*
%TD*%
D42*
%TO.C,R13*%
X230050000Y-105400000D03*
X223950000Y-105400000D03*
%TD*%
D43*
%TO.C,R10*%
X229350000Y-140800000D03*
X232450000Y-140800000D03*
%TD*%
D44*
%TO.C,C40*%
X222375000Y-140700000D03*
X225500000Y-140700000D03*
%TD*%
%TO.C,C39*%
X233537500Y-116300000D03*
X236662500Y-116300000D03*
%TD*%
D40*
%TO.C,U6*%
X229075000Y-133755000D03*
X229075000Y-135025000D03*
X229075000Y-136295000D03*
X229075000Y-137565000D03*
X224125000Y-137565000D03*
X224125000Y-136295000D03*
X224125000Y-135025000D03*
X224125000Y-133755000D03*
%TD*%
D45*
%TO.C,C50*%
X223500000Y-72662500D03*
X223500000Y-69537500D03*
%TD*%
D43*
%TO.C,R52*%
X234450000Y-140800000D03*
X237550000Y-140800000D03*
%TD*%
D46*
%TO.C,R9*%
X233400000Y-113750000D03*
X233400000Y-110650000D03*
%TD*%
D45*
%TO.C,C54*%
X224000000Y-122162500D03*
X224000000Y-119037500D03*
%TD*%
D42*
%TO.C,R8*%
X229550000Y-129560000D03*
X223450000Y-129560000D03*
%TD*%
D45*
%TO.C,C55*%
X223800000Y-98762500D03*
X223800000Y-95637500D03*
%TD*%
D47*
X162300000Y-58200000D02*
X164920000Y-58200000D01*
X241300000Y-97400000D02*
X241700000Y-97800000D01*
D48*
X222942500Y-73720000D02*
X233780000Y-73720000D01*
D49*
X233000000Y-123400000D02*
X233200000Y-123200000D01*
D48*
X233780000Y-73720000D02*
X238700000Y-68800000D01*
D50*
X241700000Y-71800000D02*
X241700000Y-97800000D01*
D47*
X164920000Y-58200000D02*
X165400000Y-57720000D01*
D48*
X233200000Y-123200000D02*
X239700000Y-123200000D01*
D50*
X158700000Y-61800000D02*
X155500000Y-61800000D01*
X162300000Y-58200000D02*
X158700000Y-61800000D01*
D48*
X224000000Y-122162500D02*
X225037500Y-123200000D01*
D47*
X223800000Y-98762500D02*
X223837500Y-98800000D01*
D50*
X241700000Y-97800000D02*
X241700000Y-121200000D01*
D48*
X225037500Y-123200000D02*
X233200000Y-123200000D01*
D51*
X224000000Y-122162500D02*
X218797500Y-122162500D01*
X223800000Y-98762500D02*
X218877500Y-98762500D01*
D50*
X238700000Y-68800000D02*
X241700000Y-71800000D01*
D48*
X226900000Y-98800000D02*
X228200000Y-97500000D01*
X223837500Y-98800000D02*
X226900000Y-98800000D01*
X241400000Y-97500000D02*
X241700000Y-97800000D01*
D52*
X218100000Y-73720000D02*
X222942500Y-73720000D01*
D48*
X239700000Y-123200000D02*
X241700000Y-121200000D01*
D50*
X162300000Y-58200000D02*
X228100000Y-58200000D01*
X228100000Y-58200000D02*
X238700000Y-68800000D01*
D48*
X228200000Y-97500000D02*
X241400000Y-97500000D01*
D53*
X241700000Y-121200000D02*
X241500000Y-121400000D01*
D51*
X220460000Y-85760000D02*
X218100000Y-85760000D01*
D49*
X220200000Y-78360000D02*
X220200000Y-78400000D01*
D48*
X224800000Y-83000000D02*
X222000000Y-85800000D01*
X224800000Y-83000000D02*
X224800000Y-81700000D01*
X222000000Y-85800000D02*
X221100000Y-85800000D01*
X221500000Y-78400000D02*
X220200000Y-78400000D01*
X224800000Y-81700000D02*
X221500000Y-78400000D01*
D49*
X220500000Y-85800000D02*
X220460000Y-85760000D01*
D51*
X218100000Y-76260000D02*
X220200000Y-78360000D01*
D49*
X234200000Y-105400000D02*
X234300000Y-105300000D01*
D48*
X230050000Y-105400000D02*
X234200000Y-105400000D01*
D54*
X234600000Y-129560000D02*
X234700000Y-129460000D01*
D55*
X230440000Y-129560000D02*
X234600000Y-129560000D01*
D51*
X221380000Y-101380000D02*
X223950000Y-103950000D01*
X220540000Y-110660000D02*
X223950000Y-107250000D01*
X223950000Y-103950000D02*
X223950000Y-105400000D01*
X220040000Y-110660000D02*
X220540000Y-110660000D01*
D56*
X218800000Y-101380000D02*
X221380000Y-101380000D01*
X218800000Y-110660000D02*
X220040000Y-110660000D01*
D51*
X223950000Y-107250000D02*
X223950000Y-105400000D01*
X223450000Y-131050000D02*
X220740000Y-133760000D01*
D57*
X220740000Y-133760000D02*
X218700000Y-133760000D01*
D51*
X221500000Y-125500000D02*
X223450000Y-127450000D01*
X219400000Y-125500000D02*
X221500000Y-125500000D01*
X218700000Y-124800000D02*
X219400000Y-125500000D01*
X223450000Y-127450000D02*
X223450000Y-129560000D01*
X223450000Y-129560000D02*
X223450000Y-131050000D01*
D53*
X156279000Y-67880000D02*
X155500000Y-67101000D01*
X213000000Y-136300000D02*
X213000000Y-89400000D01*
D58*
X214069500Y-136600000D02*
X218730500Y-136600000D01*
D53*
X209300000Y-65500000D02*
X167780000Y-65500000D01*
X213000000Y-69200000D02*
X209300000Y-65500000D01*
X213000000Y-89400000D02*
X213000000Y-69200000D01*
D48*
X214069500Y-113600000D02*
X218730500Y-113600000D01*
D59*
X213000000Y-130100000D02*
X212900000Y-130000000D01*
X212900000Y-107300000D02*
X212900000Y-106900000D01*
D48*
X213439000Y-88700000D02*
X218100000Y-88700000D01*
D53*
X165400000Y-67880000D02*
X156279000Y-67880000D01*
D49*
X213100000Y-114400000D02*
X212900000Y-114600000D01*
D59*
X212900000Y-106900000D02*
X212900000Y-89900000D01*
X213000000Y-136300000D02*
X213000000Y-130100000D01*
X212900000Y-89900000D02*
X212900000Y-89500000D01*
D53*
X167780000Y-65500000D02*
X165400000Y-67880000D01*
D59*
X212900000Y-130000000D02*
X212900000Y-114600000D01*
X212900000Y-113200000D02*
X212900000Y-106900000D01*
X212900000Y-89500000D02*
X212900000Y-88300000D01*
X212900000Y-114600000D02*
X212900000Y-113200000D01*
D53*
X213000000Y-89400000D02*
X213439000Y-88961000D01*
%LPD*%
M02*
